<?xml version="1.0" encoding="UTF-8" standalone="no"?>
<svg version="1.1" width="64px" height="64px" viewBox="0 0 18 18" xmlns="http://www.w3.org/2000/svg" xmlns:xlink="http://www.w3.org/1999/xlink">
<!-- <svg width="530px" height="64px" viewBox="0 0 530 " version="1.1" xmlns="http://www.w3.org/2000/svg" xmlns:xlink="http://www.w3.org/1999/xlink"> -->
    <!-- Generator: Sketch 40.3 (33839) - http://www.bohemiancoding.com/sketch -->
    <title>bateria svg</title>
    <!-- <desc>Created with Sketch.</desc> -->
    <defs>
        <rect id="path-1" x="1" y="12" width="14" height="3"></rect>
    </defs>
    <g id="Page-1" stroke="none" stroke-width="1" fill="none" fill-rule="evenodd">
        <g id="icn">
            <g id="color_bateria" transform="translate(0.000000, 0.000000)">
                <rect id="Rectangle-4" fill="#C5C5C5" x="1" y="10" width="10" height="5"></rect>
                <rect id="Rectangle-4" fill-opacity="0.119999997" fill="#000000" x="8" y="10" width="3" height="5"></rect>
                <rect id="Rectangle-4" fill-opacity="0.300000012" fill="#FFFFFF" x="1" y="10" width="3" height="5"></rect>
                <g id="Group-4" transform="translate(0.000000, 9.000000)" fill="#424242">
                    <rect id="Rectangle-2" x="1" y="0" width="10" height="1"></rect>
                    <circle id="Oval-31" cx="1" cy="1" r="1"></circle>
                    <circle id="Oval-31" cx="6" cy="1" r="1"></circle>
                    <circle id="Oval-31" cx="11" cy="1" r="1"></circle>
                </g>
                <g id="Group-3" transform="translate(0.000000, 14.000000)" fill="#424242">
                    <rect id="Rectangle-2" x="1" y="1" width="10" height="1"></rect>
                    <path d="M1,2 C1.55228475,2 2,1.55228475 2,1 C2,0.44771525 1.55228475,0 1,0 C0.44771525,0 0,0.44771525 0,1 C0,1.55228475 0.44771525,2 1,2 Z" id="Oval-31"></path>
                    <circle id="Oval-31" cx="6" cy="1" r="1"></circle>
                    <circle id="Oval-31" cx="11" cy="1" r="1"></circle>
                </g>
                <path d="M6.42540218,6.65027525 C5.89134456,7.61450865 5.27253105,7.61450851 5.27253105,7.61450851 C4.88200676,8.0050328 4.98501156,8.5058656 5.12877131,8.67615368 C5.27253106,8.84644177 5.8275634,8.91586043 6.21808769,8.52533614 C6.21808769,8.52533614 6.52940609,7.81445982 7.22349788,7.48511412 C8.92646096,5.78215105 12.9116082,1.94177904 12.9116082,1.94177904 C13.3021325,1.55125475 13.539328,0.990499884 13.1488037,0.599975592 C12.7582794,0.2094513 12.2796716,0.391464661 11.8891473,0.781988953 C11.8891473,0.781988953 8.14002297,4.93565447 6.42540218,6.65027525 Z" id="Path-35" fill="#ECC01B"></path>
                <path d="M2.34889002,5.99001171 C1.93917849,6.72974003 1.464445,6.72973992 1.464445,6.72973992 C1.16484754,7.02933738 1.24386946,7.41355993 1.35415723,7.54419938 C1.46444501,7.67483883 1.89024767,7.72809455 2.18984513,7.42849709 C2.18984513,7.42849709 2.42867842,6.88313603 2.96116294,6.63047278 C4.26762051,5.32401521 7.32489516,2.37780742 7.32489516,2.37780742 C7.62449262,2.07820996 7.76638705,1.70669625 7.46678958,1.40709878 C7.16719212,1.10750132 6.84009403,1.18845694 6.54049657,1.4880544 C6.54049657,1.4880544 3.66429101,4.67461072 2.34889002,5.99001171 Z" id="Path-35" fill="#ECC01B" transform="translate(4.444037, 4.433688) rotate(-30.000000) translate(-4.444037, -4.433688) "></path>
            </g>
        </g>
    </g>
</svg>