<?xml version="1.0" encoding="UTF-8" standalone="no"?>
<svg version="1.1" width="64px" height="64px" viewBox="0 0 18 18" xmlns="http://www.w3.org/2000/svg" xmlns:xlink="http://www.w3.org/1999/xlink">
<!-- <svg width="530px" height="64px" viewBox="0 0 530 " version="1.1" xmlns="http://www.w3.org/2000/svg" xmlns:xlink="http://www.w3.org/1999/xlink"> -->
    <!-- Generator: Sketch 40.3 (33839) - http://www.bohemiancoding.com/sketch -->
    <title>guitarbattle svg</title>
    <!-- <desc>Created with Sketch.</desc> -->
    <defs>
        <rect id="path-1" x="1" y="12" width="14" height="3"></rect>
    </defs>
    <g id="Page-1" stroke="none" stroke-width="1" fill="none" fill-rule="evenodd">
        <g id="icn">
            <g id="guitarbattle" transform="translate(0.000000, 0.000000)">
                <g>
                    <path d="M2,1 L8,0 L14,1 L14,8 C14,11 8,14 8,14 C8,14 2,11 2,8 L2,1 Z" id="escudo" fill="#212121"></path>
                    <path d="M12,5.53234863 C12,5.80849101 12.2238576,6.03234863 12.5,6.03234863 C12.7761424,6.03234863 13,5.80849101 13,5.53234863 L13,2.25 C13,2.00558042 12.8232935,1.79698537 12.5821995,1.75680304 L11.134439,1.51550962 C10.8620538,1.47011209 10.6044401,1.65412193 10.5590425,1.92650709 C10.513645,2.19889225 10.6976548,2.45650602 10.97004,2.50190354 L12,2.67356354 L12,5.53234863 Z M7.99997914,11.964641 C7.93612908,11.9300608 7.86288472,11.8897129 7.78134533,11.8438791 C7.43484277,11.6491076 7.07036582,11.4280985 6.70599628,11.1856937 C6.47608403,11.0327396 6.1657095,11.0951264 6.01275536,11.3250387 C5.85980122,11.5549509 5.9221881,11.8653255 6.15210034,12.0182796 C6.53864584,12.2754374 6.92418613,12.5092188 7.29134444,12.715601 C7.5128561,12.8401142 7.68039091,12.9285093 7.7763932,12.9765105 C7.91715695,13.0468923 8.08284305,13.0468923 8.2236068,12.9765105 C8.31546154,12.9305831 8.47604754,12.8459649 8.68896682,12.7266511 C9.04176733,12.5289518 9.41366104,12.3047027 9.78841001,12.0576746 C10.0189676,11.905695 10.0826677,11.5955873 9.93068805,11.3650297 C9.77870843,11.1344721 9.46860075,11.0707721 9.23804314,11.2227517 C8.88462544,11.4557186 8.53302347,11.6677319 8.2001169,11.8542832 C8.12588417,11.8958811 8.05888013,11.9327417 7.99997914,11.964641 Z M5.07778517,2.49393268 C5.35017033,2.44853516 5.53418016,2.19092139 5.48878264,1.91853623 C5.44338511,1.64615107 5.18577134,1.46214123 4.91338618,1.50753876 L3.41780051,1.75680304 C3.17670652,1.79698537 3,2.00558042 3,2.25 L3,5.52697754 C3,5.80311991 3.22385763,6.02697754 3.5,6.02697754 C3.77614237,6.02697754 4,5.80311991 4,5.52697754 L4,2.67356354 L5.07778517,2.49393268 Z" id="linha_interna" fill="#757575"></path>
                    <polygon id="strela" fill="#EEEEEE" points="6.5 2 7.60366821 1.61767578 8 0.5 8.44110107 1.61767578 9.5 2 8.44110107 2.39605713 8 3.5 7.60366821 2.39605713"></polygon>
                    <g id="guitarra_direita" transform="translate(5.000000, 2.000000)">
                        <path d="M7.5,11 C6.86056796,11 7,10 7,10 L7,8 L5,8 C5,8 4,8.11884655 4,7.5 C4,7 4.63636364,6.56412391 4.63636364,6.54545455 C4.63636364,6.54217663 9.72727273,4 9.72727273,4 L11,4 L11,5.27272727 L8.45454545,10.3636364 C8.45454545,10.3636364 8,11 7.5,11 Z" id="Path-14-Copy" fill="#FF4840" transform="translate(7.500000, 7.500000) scale(-1, 1) translate(-7.500000, -7.500000) "></path>
                        <path d="M6.35355339,5.64644661 L1.70710678,1 C1.51184464,0.804737854 1.19526215,0.804737854 1,1 C0.804737854,1.19526215 0.804737854,1.51184464 1,1.70710678 L5.64644661,6.35355339 C5.84170876,6.54881554 6.15829124,6.54881554 6.35355339,6.35355339 C6.54881554,6.15829124 6.54881554,5.84170876 6.35355339,5.64644661 Z" id="Path-3-Copy" fill="#EEEEEE"></path>
                        <circle id="Oval" fill="#FF4840" cx="10.5" cy="4.5" r="0.5"></circle>
                        <circle id="Oval-Copy" fill="#FF4840" cx="9.5" cy="9.5" r="0.5"></circle>
                    </g>
                    <g id="guitarra_esquerda" transform="translate(0.000000, 2.000000)">
                        <path d="M3.5,11 C2.86056796,11 3,10 3,10 L3,8 L1,8 C1,8 2.20824973e-17,8.11884655 0,7.5 C0,7 0.636363636,6.56412391 0.636363636,6.54545455 C0.636363636,6.54217663 5.72727273,4 5.72727273,4 L7,4 L7,5.27272727 L4.45454545,10.3636364 C4.45454545,10.3636364 4,11 3.5,11 Z" id="Path-14" fill="#FF4840"></path>
                        <path d="M5.35355339,6.35355339 L10,1.70710678 C10.1952621,1.51184464 10.1952621,1.19526215 10,1 C9.80473785,0.804737854 9.48815536,0.804737854 9.29289322,1 L4.64644661,5.64644661 C4.45118446,5.84170876 4.45118446,6.15829124 4.64644661,6.35355339 C4.84170876,6.54881554 5.15829124,6.54881554 5.35355339,6.35355339 Z" id="Path-3" fill="#EEEEEE"></path>
                        <circle id="Oval-Copy-2" fill="#FF4840" cx="1.5" cy="9.5" r="0.5"></circle>
                        <circle id="Oval-Copy-3" fill="#FF4840" cx="0.5" cy="4.5" r="0.5"></circle>
                    </g>
                </g>
            </g>
        </g>
    </g>
</svg>