<?xml version="1.0" encoding="UTF-8" standalone="no"?>
<svg version="1.1" width="64px" height="64px" viewBox="0 0 18 18" xmlns="http://www.w3.org/2000/svg" xmlns:xlink="http://www.w3.org/1999/xlink">
<!-- <svg width="530px" height="64px" viewBox="0 0 530 " version="1.1" xmlns="http://www.w3.org/2000/svg" xmlns:xlink="http://www.w3.org/1999/xlink"> -->
    <!-- Generator: Sketch 40.3 (33839) - http://www.bohemiancoding.com/sketch -->
    <title>canto svg</title>
    <!-- <desc>Created with Sketch.</desc> -->
    <defs>
        <rect id="path-1" x="1" y="12" width="14" height="3"></rect>
    </defs>
    <g id="Page-1" stroke="none" stroke-width="1" fill="none" fill-rule="evenodd">
        <g id="icn">
            <g id="color_canto" transform="translate(0.000000, 0.000000)">
                <g transform="translate(1.000000, 1.000000)">
                    <path d="M12.5876854,5.58768539 C13.8670212,4.29622039 14.7845249,2.91325898 12.935633,1.06436704 C11.086741,-0.784524889 9.75747755,0.0671516719 8.41231461,1.41231461 C7.06715167,2.75747755 6.21547511,4.08674102 8.06436704,5.93563296 C9.91325898,7.78452489 11.3083496,6.87915039 12.5876854,5.58768539 Z" id="mic" fill="#9E9E9E"></path>
                    <path d="M12.9486273,5.20776811 C12.8332154,5.33550334 12.7121632,5.46202747 12.5876854,5.58768539 C12.4747081,5.70173381 12.3608281,5.81277128 12.2458125,5.91916689 L8.08164354,1.75499788 C8.18740727,1.64066613 8.29808152,1.5265477 8.41231461,1.41231461 C8.53825219,1.28637702 8.66405042,1.16476494 8.79014874,1.04928952 L12.9486273,5.20776811 Z" id="mic_gola" fill="#C9C9C9"></path>
                    <path d="M7.02087402,4.15545654 L0.505861406,11.5736313 C0.505861406,11.5736313 -0.492603103,12.7957022 0.315986598,13.6294468 C1.1245763,14.4631915 2.21704271,13.6294468 2.21704271,13.6294468 L9.91412354,6.96130371 L7.02087402,4.15545654 Z" id="cabo" fill="#424242"></path>
                    <polygon id="Combined-Shape" fill="#FF4840" points="8.86826687 7.86735135 9.91412354 6.96130371 7.02087402 4.15545654 6.14905242 5.14813689 8.86826687 7.86735135"></polygon>
                    <path d="M6.61957919,4.59931552 L7.02087402,4.15545654 L9.91412354,6.96130371 L9.42172157,7.4014579 L6.61957919,4.59931552 Z" id="gola_sombra" fill="#E54039"></path>
                    <circle id="luz_ativa" fill="#61B406" cx="6.5" cy="7.5" r="0.5"></circle>
                </g>
            </g>
        </g>
    </g>
</svg>