<?xml version="1.0" encoding="UTF-8" standalone="no"?>
<svg version="1.1" width="64px" height="64px" viewBox="0 0 18 18" xmlns="http://www.w3.org/2000/svg" xmlns:xlink="http://www.w3.org/1999/xlink">
<!-- <svg width="530px" height="64px" viewBox="0 0 530 " version="1.1" xmlns="http://www.w3.org/2000/svg" xmlns:xlink="http://www.w3.org/1999/xlink"> -->
    <!-- Generator: Sketch 40.3 (33839) - http://www.bohemiancoding.com/sketch -->
    <title>pandeiro svg</title>
    <!-- <desc>Created with Sketch.</desc> -->
    <defs>
        <rect id="path-1" x="1" y="12" width="14" height="3"></rect>
    </defs>
    <g id="Page-1" stroke="none" stroke-width="1" fill="none" fill-rule="evenodd">
        <g id="icn">
            <g id="color_pandeiro" transform="translate(0.000000, 0.000000)">
                <g id="pandeiro">
                    <path d="M13,1 C12.6785139,1.50281107 14.6999998,2.4000001 14.6999998,2.4000001 C14.7760699,1.94832763 15.0558307,0.983592686 14.5682722,0.497188929 C14.1526769,0.0825778731 13.3214861,0.497188929 13,1 Z" id="Combined-Shape-Copy-path" fill="#3F260F" transform="translate(13.907128, 1.363799) rotate(15.000000) translate(-13.907128, -1.363799) "></path>
                    <path d="M2.5,14.5 C1.89261369,14.8012704 0.826275161,14.9812906 0.43802992,14.5939649 C0.0224345595,14.1793538 0.43802992,13.3501317 0.600000024,13 L2.5,14.5 Z" id="Combined-Shape-Copy-path" fill="#3F260F"></path>
                    <path d="M13.9058908,1.49718893 L13,0.600000024 L0.5,13 C0.5,13 1.16530439,13.663441 1.43802992,13.9355206 C2.8151918,15.3094208 7.06822906,13.2939889 10.3881729,9.98190806 C13.7081167,6.66982726 15.2830527,2.87108911 13.9058908,1.49718893 Z" id="Combined-Shape-Copy-path-Copy-2" fill="#CB792F"></path>
                    <path d="M1.47701833,13.9720483 C1.47701833,13.9720483 4.67255011,14.5468078 9.58080629,9.61779497 C14.4890625,4.68878214 13.9448792,1.53371657 13.9448792,1.53371657 C13.9448792,1.53371657 14.9672991,2.55371495 15.3990115,2.98440491 C15.7982318,3.38267971 16.2674921,3.73611711 15.8141555,5.47162091 C15.3608189,7.20712471 13.7091576,9.69798051 11.6581382,11.6902069 C9.7328984,13.6648223 6.82146669,15.4905507 5.42427143,15.8368973 C3.91557326,16.2578513 3.27984086,15.7706009 2.93485294,15.4264301 C2.44890807,14.9416362 1.47701833,13.9720483 1.47701833,13.9720483 Z" id="Combined-Shape-Copy-path-Copy" fill="#DFA72A"></path>
                    <path d="M9.38817289,8.98190806 C12.7081167,5.66982726 14.2830527,1.87108911 12.9058908,0.497188929 C11.5287289,-0.876711251 7.72097237,0.694494577 4.40102854,4.00657537 C1.08108473,7.31865617 -0.93913196,11.5616205 0.43802992,12.9355206 C1.8151918,14.3094208 6.06822906,12.2939889 9.38817289,8.98190806 L9.38817289,8.98190806 L9.38817289,8.98190806 Z" id="Combined-Shape-Copy-path" fill="#DFA72A"></path>
                    <path d="M8.74993714,8.374799 C11.8485514,5.2835236 13.4766497,1.8958182 12.3863966,0.808147223 C11.2961434,-0.279523755 7.90039546,1.34471856 4.80178123,4.43599397 C1.70316698,7.52726937 -0.340526714,11.3295858 0.749726443,12.4172568 C1.8399796,13.5049278 5.65132291,11.4660744 8.74993714,8.374799 L8.74993714,8.374799 L8.74993714,8.374799 Z" id="Combined-Shape-Copy-path" fill="#FFDC54"></path>
                    <path d="M14.6035122,2.94785143 C14.6035122,2.94785143 14.6572125,3.59753091 14.4310869,4.41597189 C14.2049612,5.23441283 13.7796812,5.92963149 13.7796812,5.92963149 C13.7796812,5.92963149 15.1642696,6.02966629 15.5788198,4.39372709 C15.8399942,3.15583857 14.6035122,2.94785143 14.6035122,2.94785143 Z M12.9058908,7.13096583 C12.9058908,7.13096583 12.5825536,7.71557134 12.0575306,8.39758937 C11.5325075,9.07960737 10.9200815,9.71058149 10.9200815,9.71058149 C10.9200815,9.71058149 12.2425338,10.0988965 12.9985693,9.0846158 C13.7546048,8.07033509 12.9058908,7.13096583 12.9058908,7.13096583 Z M7.29535337,12.7282151 C7.29535337,12.7282151 7.88134677,12.4056437 8.56498394,11.8818642 C9.24862109,11.3580846 9.88109314,10.7471091 9.88109314,10.7471091 C9.88109314,10.7471091 10.2703301,12.0664292 9.2536414,12.8206741 C8.23695271,13.574919 7.29535337,12.7282151 7.29535337,12.7282151 Z M2.8945104,14.6291214 C2.8945104,14.6291214 3.54573226,14.6826945 4.36611623,14.4571044 C5.1865002,14.2315143 5.88336934,13.8072416 5.88336934,13.8072416 C5.88336934,13.8072416 5.9836416,15.1885507 4.34381863,15.6021191 C3.10299131,15.8626748 2.8945104,14.6291214 2.8945104,14.6291214 Z" id="Combined-Shape" fill="#3F260F"></path>
                </g>
            </g>
        </g>
    </g>
</svg>