<?xml version="1.0" encoding="UTF-8" standalone="no"?>
<svg version="1.1" width="64px" height="64px" viewBox="0 0 18 18" xmlns="http://www.w3.org/2000/svg" xmlns:xlink="http://www.w3.org/1999/xlink">
<!-- <svg width="530px" height="64px" viewBox="0 0 530 " version="1.1" xmlns="http://www.w3.org/2000/svg" xmlns:xlink="http://www.w3.org/1999/xlink"> -->
    <!-- Generator: Sketch 40.3 (33839) - http://www.bohemiancoding.com/sketch -->
    <title>percussao svg</title>
    <!-- <desc>Created with Sketch.</desc> -->
    <defs>
        <rect id="path-1" x="1" y="12" width="14" height="3"></rect>
    </defs>
    <g id="Page-1" stroke="none" stroke-width="1" fill="none" fill-rule="evenodd">
        <g id="icn">
            <g id="color_percussao" transform="translate(0.000000, 0.000000)">
                <g>
                    <path d="M1.00426957,4.00662923 L1.00426957,2 L11,2 L10.9954992,4.00662913 C10.992527,10.0000002 9.07133966,15.0592613 9.07133966,15.0592613 C8.89386866,15.5788169 8.29991192,16 7.74121523,16 L4.25878477,16 C3.70164833,16 3.1023875,15.5840069 2.92768762,15.0604088 C2.92768762,15.0604088 1,10.0088445 1.00426957,4.00662923 Z" id="corpo" fill="#CB792F"></path>
                    <path d="M10,3.00062466 C9,3.00062466 8.59742777,4.00004934 8,4 C6.82285233,3.99990278 7.13832963,3.00087125 6,3.00062466 C4.86167037,3.00037807 5.2,4 4,4 C2.8,4 3.2,3.00062466 2,3.00062466 C0.8,3.00062466 1,4 1,4 C1,4 0,4.00062466 0,3 L0,1.00947827 C0,0.451958816 0.455760956,0 1.00247329,0 L10.9975267,0 C11.5511774,0 12,0.450136876 12,1.00855417 C12,1.00855417 12,2.00031233 12,2.99102783 C12,4.00062466 11,4.00062476 11,4.00062476 C11,4.00062476 11,3.00062466 10,3.00062466 Z" id="tampa" fill="#FFCA00"></path>
                    <path d="M1.5,2.5 C1.77614237,2.5 2,2.27614237 2,2 C2,1.72385763 1.77614237,1.5 1.5,1.5 C1.22385763,1.5 1,1.72385763 1,2 C1,2.27614237 1.22385763,2.5 1.5,2.5 Z M4.5,2.5 C4.77614237,2.5 5,2.27614237 5,2 C5,1.72385763 4.77614237,1.5 4.5,1.5 C4.22385763,1.5 4,1.72385763 4,2 C4,2.27614237 4.22385763,2.5 4.5,2.5 Z M7.5,2.5 C7.77614237,2.5 8,2.27614237 8,2 C8,1.72385763 7.77614237,1.5 7.5,1.5 C7.22385763,1.5 7,1.72385763 7,2 C7,2.27614237 7.22385763,2.5 7.5,2.5 Z M10.5,2.5 C10.7761424,2.5 11,2.27614237 11,2 C11,1.72385763 10.7761424,1.5 10.5,1.5 C10.2238576,1.5 10,1.72385763 10,2 C10,2.27614237 10.2238576,2.5 10.5,2.5 Z" id="afinadores" fill="#DFA72A"></path>
                    <path d="M10.2764027,10.6847127 L10,10.407119 L8,12.4142136 L6,10.407119 L4,12.4142136 L2,10.407119 L1.72093332,10.6873882 C1.64289142,10.3106233 1.56715611,9.91536936 1.49597577,9.50402423 L2,9 L4,11.0210644 L6,9 L8,11.0070946 L10,9 L10.5013164,9.50131635 C10.4301179,9.91263543 10.3544003,10.3079028 10.2764027,10.6847127 L10.2764027,10.6847127 Z" id="desenho" fill="#FF9900"></path>
                    <path d="M10.712839,8.11946704 L10.0035473,7.40711899 L8.00354729,9.41421356 L6.00354729,7.40711899 L4.00354729,9.41421356 L2.00354729,7.40711899 L1.28548749,8.12827293 C1.23090988,7.7171844 1.18232807,7.29445841 1.14153755,6.86200974 L2.00354729,6 L4.00354729,8.02106438 L6.00354729,6 L8.00354729,8.00709457 L10.0035473,6 L10.8569872,6.85343996 C10.8160944,7.28575279 10.7674491,7.70840208 10.712839,8.11946704 L10.712839,8.11946704 Z" id="Path" fill="#ECC01B"></path>
                </g>
            </g>
        </g>
    </g>
</svg>