<?xml version="1.0" encoding="UTF-8" standalone="no"?>
<svg version="1.1" width="64px" height="64px" viewBox="0 0 18 18" xmlns="http://www.w3.org/2000/svg" xmlns:xlink="http://www.w3.org/1999/xlink">
<!-- <svg width="530px" height="64px" viewBox="0 0 530 " version="1.1" xmlns="http://www.w3.org/2000/svg" xmlns:xlink="http://www.w3.org/1999/xlink"> -->
    <!-- Generator: Sketch 40.3 (33839) - http://www.bohemiancoding.com/sketch -->
    <title>sax svg</title>
    <!-- <desc>Created with Sketch.</desc> -->
    <defs>
        <rect id="path-1" x="1" y="12" width="14" height="3"></rect>
    </defs>
    <g id="Page-1" stroke="none" stroke-width="1" fill="none" fill-rule="evenodd">
        <g id="icn">
            <g id="color_sax" transform="translate(0.000000, 0.000000)">
                <g>
                    <path d="M6.16753375,1.48175028 C6.40585727,1.21299002 6.80098072,1.35212494 6.51276438,1.80708775 C6.22454803,2.26205056 1.26622475,8.84980056 1.26622475,8.84980056 C1.26622475,8.84980056 -2.03227241,13.2384816 2.05093839,15.4796078 C4.89267571,17.0393343 6.64632411,14.7152246 7.26878996,13.385229 C7.89125582,12.0552334 8.33464107,11.641848 9.03847092,11.4978197 C9.74230077,11.3537914 9.98225557,11.4513491 10.3274861,11.7766865 C10.6727166,12.1020239 11.134364,11.9928889 11.0108259,11.4608586 C10.8872877,10.9288283 10.072852,8.38226897 9.48114239,6.49410282 C9.2923358,5.89161438 8.85052058,5.99250936 8.69029851,6.71460135 C8.53617368,7.40921414 8.15098692,7.73425923 7.55243251,8.10606723 C6.9538781,8.47787522 6.30442172,9.03561539 5.66470341,10.0616313 C5.0249851,11.0876471 4.40477106,13.1500077 3.59180582,12.8323885 C2.77884058,12.5147694 3.05933867,11.5920723 3.29989022,11.1908614 C3.54044177,10.7896505 7.92129839,4.24674019 8.55593936,3.1195782 C9.19058034,1.99241621 8.94410147,0.429587507 7.67171712,0.088653196 C6.08899527,-0.335435894 5.55354289,0.918089305 4.50269127,2.23308496 C4.13482014,2.69342488 3.92625858,3.14301061 3.08552187,3.54971171 C2.5243402,3.82117982 1.47636169,3.35137174 1.04115286,3.23475788 C0.358410108,3.05181751 0.29737666,3.90027267 0.918051891,4.0665821 C1.90903102,4.33211415 2.71741964,4.77063086 3.70560007,4.21478945 C4.57418666,3.72621836 5.65748232,2.05694132 6.16753375,1.48175028 Z" id="Path-12" fill="#ECC01B"></path>
                    <path d="M2.58664614,3.6435969 C2.03973153,3.6130289 1.38415967,3.33429493 1.06276559,3.24817765 C0.380022841,3.06523728 0.318989393,3.91369244 0.939664624,4.08000186 C1.44672977,4.21586956 1.90598954,4.39702764 2.3659912,4.46709074 L2.58664572,3.64359687 L2.58664614,3.6435969 L2.58664614,3.6435969 Z" id="Combined-Shape" fill="#CB792F"></path>
                    <path d="M6.9786178,5.64003351 C6.95681342,5.63666195 6.93497276,5.63207774 6.91317279,5.62623646 C6.5875228,5.53897881 6.39426762,5.20425103 6.48152527,4.87860104 C6.56878293,4.55295104 6.90351071,4.35969587 7.2291607,4.44695352 C7.38218154,4.48795533 7.50596961,4.58359855 7.5851573,4.70726568 C7.39735067,4.99779184 7.19293071,5.31199729 6.9786178,5.64003351 L6.9786178,5.64003351 L6.9786178,5.64003351 Z M5.88395436,7.30705344 C5.85663507,7.30359447 5.82922791,7.29824554 5.80188475,7.29091896 C5.47623476,7.20366131 5.28297958,6.86893353 5.37023724,6.54328354 C5.45749489,6.21763355 5.79222267,6.02437837 6.11787266,6.11163602 C6.27902143,6.15481571 6.40774946,6.25859567 6.48610796,6.39188766 C6.28765139,6.69414653 6.08540291,7.00144485 5.88395436,7.30705344 L5.88395436,7.30705344 L5.88395436,7.30705344 Z M4.79868648,8.95005182 C4.78611386,8.9475124 4.77354003,8.94456417 4.76097971,8.94119864 C4.43532971,8.85394099 4.24207454,8.51921321 4.32933219,8.19356322 C4.41658984,7.86791323 4.75131762,7.67465805 5.07696762,7.76191571 C5.22339428,7.80115061 5.34305335,7.89041902 5.42247958,8.00639841 C5.2074358,8.33198653 4.99752894,8.64943318 4.79868648,8.95005182 L4.79868648,8.95005182 L4.79868648,8.95005182 Z M3.73347903,10.5617851 C3.73178251,10.5613459 3.7300862,10.560899 3.72839013,10.5604446 C3.40274014,10.4731869 3.20948497,10.1384591 3.29674262,9.81280914 C3.38400027,9.48715915 3.71872805,9.29390397 4.04437804,9.38116163 C4.17902527,9.41724024 4.29103837,9.49562617 4.36994735,9.59818484 C4.12290323,9.97168383 3.90553257,10.3005257 3.73347903,10.5617851 L3.73347903,10.5617851 L3.73347903,10.5617851 Z" id="Combined-Shape" fill="#CB792F"></path>
                    <path d="M7.42668567,0.736131056 C7.42664399,0.73611744 7.42874904,0.736850108 7.43282735,0.738363328 C7.44099717,0.74139466 7.45080657,0.745278214 7.46208214,0.750046356 C7.49573001,0.764275165 7.53326226,0.782453275 7.57330043,0.804809545 C7.68837134,0.869062137 7.79818265,0.952917544 7.89254278,1.05776952 C8.14423318,1.33744523 8.24718033,1.71667404 8.13435701,2.23252783 C8.11160966,2.33653386 8.17748284,2.43928778 8.28148887,2.46203512 C8.3854949,2.48478247 8.48824881,2.41890929 8.51099616,2.31490326 C8.65054866,1.67683758 8.51327973,1.17117681 8.17912305,0.799865449 C8.05435076,0.661219805 7.91122632,0.55192543 7.76126079,0.468188591 C7.70853621,0.43874856 7.65841903,0.41447515 7.61224364,0.394948781 C7.58314313,0.382642934 7.56076243,0.374338792 7.54642652,0.36965474 C7.44522688,0.336589215 7.33638346,0.391822828 7.30331794,0.493022469 C7.27025241,0.594222109 7.32548603,0.703065531 7.42668567,0.736131056 Z M6.1083364,11.2147448 C6.11504624,11.1972992 6.13000315,11.1611355 6.15330922,11.1089621 C6.19303172,11.0200384 6.24132773,10.9204407 6.29827798,10.8128834 C6.46134621,10.5049095 6.66017527,10.1968311 6.89490549,9.91030593 C7.2194023,9.51420654 7.58621919,9.19228872 7.99471303,8.96947389 C8.11592512,8.90335821 8.16058958,8.75149905 8.09447389,8.63028697 C8.02835821,8.50907488 7.87649905,8.46441042 7.75528697,8.53052611 C7.28549956,8.78677378 6.87088677,9.15063721 6.50812576,9.59344407 C6.2507095,9.9076611 6.03413523,10.2432351 5.8563978,10.5789135 C5.79406606,10.6966345 5.74092495,10.8062238 5.69678697,10.9050321 C5.66977675,10.9654978 5.65145766,11.0097907 5.6416636,11.0352552 C5.59209893,11.1641234 5.65638709,11.3087717 5.78525523,11.3583364 C5.91412337,11.4079011 6.05877173,11.3436129 6.1083364,11.2147448 Z" id="Combined-Shape" fill="#FFDC58"></path>
                </g>
            </g>
        </g>
    </g>
</svg>