<?xml version="1.0" encoding="UTF-8" standalone="no"?>
<svg version="1.1" width="64px" height="64px" viewBox="0 0 18 18" xmlns="http://www.w3.org/2000/svg" xmlns:xlink="http://www.w3.org/1999/xlink">
<!-- <svg width="530px" height="64px" viewBox="0 0 530 " version="1.1" xmlns="http://www.w3.org/2000/svg" xmlns:xlink="http://www.w3.org/1999/xlink"> -->
    <!-- Generator: Sketch 40.3 (33839) - http://www.bohemiancoding.com/sketch -->
    <title>triangulo svg</title>
    <!-- <desc>Created with Sketch.</desc> -->
    <defs>
        <rect id="path-1" x="1" y="12" width="14" height="3"></rect>
    </defs>
    <g id="Page-1" stroke="none" stroke-width="1" fill="none" fill-rule="evenodd">
        <g id="icn">
            <g id="color_triangulo" transform="translate(0.000000, 0.000000)">
                <g>
                    <path d="M8.32702768,2.91087258 C8.17627708,2.67397878 7.95094395,2.67938946 7.82155571,2.9195377 L2.49684463,12.8023521 C2.37312162,13.0319855 2.48798528,13.2374481 2.76605345,13.2377802 L13,13.25 C13.4142136,13.25 13.75,13.5857864 13.75,14 C13.75,14.4142136 13.4142136,14.75 13,14.75 L1,14.75 C0.432493575,14.75 0.0705919794,14.1440981 0.339646675,13.6444251 L7.33964668,0.644425133 C7.61124327,0.140031452 8.32518735,0.114036748 8.63274612,0.597343381 L10.9513467,4.24085866 C11.0987859,4.47254876 11.0579872,4.8206925 10.8625372,5.01614248 L10.1317752,5.74690443 L8.32702768,2.91087258 Z M14.3672539,12.4026566 C14.589635,12.7521126 15.0532006,12.8551272 15.4026566,12.6327461 C15.7521126,12.410365 15.8551272,11.9467994 15.6327461,11.5973434 L12.8682248,7.25309557 L12.1374628,7.98385752 C11.9409755,8.18034485 11.9063981,8.53559755 12.0486533,8.75914134 L14.3672539,12.4026566 Z" id="triangulo" fill="#9E9E9E"></path>
                    <path d="M15.5303301,3.53033009 C15.8232233,3.23743687 15.8232233,2.76256313 15.5303301,2.46966991 C15.2374369,2.1767767 14.7625631,2.1767767 14.4696699,2.46966991 L7.46966991,9.46966991 C7.1767767,9.76256313 7.1767767,10.2374369 7.46966991,10.5303301 C7.76256313,10.8232233 8.23743687,10.8232233 8.53033009,10.5303301 L15.5303301,3.53033009 Z" id="baqueta" fill="#424242"></path>
                </g>
            </g>
        </g>
    </g>
</svg>