<?xml version="1.0" encoding="UTF-8" standalone="no"?>
<svg version="1.1" width="64px" height="64px" viewBox="0 0 18 18" xmlns="http://www.w3.org/2000/svg" xmlns:xlink="http://www.w3.org/1999/xlink">
<!-- <svg width="530px" height="64px" viewBox="0 0 530 " version="1.1" xmlns="http://www.w3.org/2000/svg" xmlns:xlink="http://www.w3.org/1999/xlink"> -->
    <!-- Generator: Sketch 40.3 (33839) - http://www.bohemiancoding.com/sketch -->
    <title>trompete svg</title>
    <!-- <desc>Created with Sketch.</desc> -->
    <defs>
        <rect id="path-1" x="1" y="12" width="14" height="3"></rect>
    </defs>
    <g id="Page-1" stroke="none" stroke-width="1" fill="none" fill-rule="evenodd">
        <g id="icn">
            <g id="color_trompete" transform="translate(0.000000, 0.000000)">
                <g>
                    <path d="M6.16238828,10.9935005 L8.9935005,8.16238828 C9.38543817,7.77045061 10.012554,7.76991335 10.4063715,8.16373083 C10.7994065,8.55676579 10.8005588,9.18375715 10.4077141,9.57660184 L7.57660184,12.4077141 C7.18466417,12.7996517 6.55754831,12.800189 6.16373083,12.4063715 C5.77069586,12.0133365 5.76954359,11.3863452 6.16238828,10.9935005 L6.16238828,10.9935005 Z M8.99081541,13.8219276 L11.8219276,10.9908154 C12.9969869,9.81575615 12.9935074,7.92243957 11.8205851,6.74951726 C11.3479066,6.27683881 10.7591101,5.99450538 10.1477797,5.9021132 L3.86956088,11.6131448 C3.86956088,11.6131448 4.14072391,13.2117917 4.74951726,13.8205851 C5.92492628,14.9959941 7.81837107,14.994372 8.99081541,13.8219276 L8.99081541,13.8219276 Z" id="cone" fill="#FFCA00"></path>
                    <path d="M9,6.47628253 C9.52916121,6.09777186 9.94690447,5.87175432 10.1477797,5.9021132 C10.7591101,5.99450538 11.3479066,6.27683881 11.8205851,6.74951726 C12.9935074,7.92243957 12.9969869,9.81575615 11.8219276,10.9908154 L9,13.812743 L9,10.9843159 L10.4077141,9.57660184 C10.8005588,9.18375715 10.7994065,8.55676579 10.4063715,8.16373083 C10.0147238,7.77208309 9.3923413,7.77045666 9,8.15594576 L9,6.47628253 Z M4,9 C4,8.44771525 3.55228475,8 3,8 C2.44771525,8 2,8.44771525 2,9 C2,9.55228475 2.44771525,10 3,10 C3.55228475,10 4,9.55228475 4,9 Z M6,7 C6,6.44771525 5.55228475,6 5,6 C4.44771525,6 4,6.44771525 4,7 C4,7.55228475 4.44771525,8 5,8 C5.55228475,8 6,7.55228475 6,7 Z M8,5 C8,4.44771525 7.55228475,4 7,4 C6.44771525,4 6,4.44771525 6,5 C6,5.55228475 6.44771525,6 7,6 C7.55228475,6 8,5.55228475 8,5 Z" id="Combined-Shape" fill="#ECC01B"></path>
                    <path d="M1.19085259,15.8545719 C1.19085259,15.8545719 10.4322723,7.02152853 12.1262832,5.41549633 C14.1813944,3.89813218 15.7468972,3.93783403 15.7468972,3.93783403 C16.0173003,3.9159073 16.0815165,3.74109232 15.8885792,3.54560185 L12.5036382,0.115867048 C12.3114839,-0.0788300801 12.1102008,-0.0256680359 12.0442221,0.256574636 C12.0442221,0.256574636 11.584247,2.62019897 10.5849499,3.87399825 C10.1122725,4.46705764 0.139488487,14.8211587 0.139488487,14.8211587 C-0.0504268193,15.0184121 -0.0438280364,15.3388902 0.143499847,15.5262381 L0.475288535,15.8580623 C0.667419255,16.0502135 0.990763674,16.0458037 1.19085259,15.8545719 Z" id="Combined-Shape" fill="#FFCA00"></path>
                </g>
            </g>
        </g>
    </g>
</svg>