<?xml version="1.0" encoding="UTF-8" standalone="no"?>
<svg version="1.1" width="64px" height="64px" viewBox="0 0 18 18" xmlns="http://www.w3.org/2000/svg" xmlns:xlink="http://www.w3.org/1999/xlink">
<!-- <svg width="530px" height="64px" viewBox="0 0 530 " version="1.1" xmlns="http://www.w3.org/2000/svg" xmlns:xlink="http://www.w3.org/1999/xlink"> -->
    <!-- Generator: Sketch 40.3 (33839) - http://www.bohemiancoding.com/sketch -->
    <title>ukulele svg</title>
    <!-- <desc>Created with Sketch.</desc> -->
    <defs>
        <rect id="path-1" x="1" y="12" width="14" height="3"></rect>
    </defs>
    <g id="Page-1" stroke="none" stroke-width="1" fill="none" fill-rule="evenodd">
        <g id="icn">
            <g id="color_ukulele" transform="translate(0.000000, 0.000000)">
                <path d="M0.832112167,9.30483381 C1.64148212,8.49063466 4.40275309,5.83648408 6.13118765,4.78429453 C7.63912635,4.01849769 10.0106201,6.00115962 10.0106201,6.00115962 C10.0106201,6.00115962 11.9858597,8.37816047 11.2202677,9.90373912 C10.1743189,11.6424866 7.61943624,14.2719211 6.81006628,15.0861203 C5.89440383,16.0072461 4.55893033,16.8969314 1.87552943,14.2013422 C-0.807871462,11.5057531 -0.0873423076,10.2297743 0.832112167,9.30483381 Z" id="Combined-Shape" fill="#CB792F"></path>
                <circle id="Oval-6" fill="#3F260F" cx="7.5" cy="8.5" r="1.5"></circle>
                <path d="M10.0303866,7.00727017 L15.5128174,1.50738525 L14.5128174,0.507385254 C14.5128174,0.507385254 11.0219957,4.01804056 9.04487506,5.99279905 C9.04236859,5.99530252 9.03735566,7.00030947 9.03735566,7.00030947 L10.0303866,7.00727017 Z M13.5,1 C13.7761424,1 14,0.776142375 14,0.5 C14,0.223857625 13.7761424,0 13.5,0 C13.2238576,0 13,0.223857625 13,0.5 C13,0.776142375 13.2238576,1 13.5,1 Z M12.5,2 C12.7761424,2 13,1.77614237 13,1.5 C13,1.22385763 12.7761424,1 12.5,1 C12.2238576,1 12,1.22385763 12,1.5 C12,1.77614237 12.2238576,2 12.5,2 Z M14.5,4 C14.7761424,4 15,3.77614237 15,3.5 C15,3.22385763 14.7761424,3 14.5,3 C14.2238576,3 14,3.22385763 14,3.5 C14,3.77614237 14.2238576,4 14.5,4 Z M15.5,3 C15.7761424,3 16,2.77614237 16,2.5 C16,2.22385763 15.7761424,2 15.5,2 C15.2238576,2 15,2.22385763 15,2.5 C15,2.77614237 15.2238576,3 15.5,3 Z M3,10.7876949 L5.21230508,13 L6,12.2123051 L3.78769492,10 L3,10.7876949 Z" id="Combined-Shape" fill="#3F260F"></path>
            </g>
        </g>
    </g>
</svg>