<?xml version="1.0" encoding="UTF-8" standalone="no"?>
<svg version="1.1" width="64px" height="64px" viewBox="0 0 18 18" xmlns="http://www.w3.org/2000/svg" xmlns:xlink="http://www.w3.org/1999/xlink">
<!-- <svg width="530px" height="64px" viewBox="0 0 530 " version="1.1" xmlns="http://www.w3.org/2000/svg" xmlns:xlink="http://www.w3.org/1999/xlink"> -->
    <!-- Generator: Sketch 40.3 (33839) - http://www.bohemiancoding.com/sketch -->
    <title>viola svg</title>
    <!-- <desc>Created with Sketch.</desc> -->
    <defs>
        <rect id="path-1" x="1" y="12" width="14" height="3"></rect>
    </defs>
    <g id="Page-1" stroke="none" stroke-width="1" fill="none" fill-rule="evenodd">
        <g id="icn">
            <g id="color_viola" transform="translate(0.000000, 0.000000)">
                <g id="Combined-Shape">
                    <path d="M6.62791251,15.1573452 C3.91726897,18.285577 -2.40791458,11.9076929 0.968051818,9.00659937 C2.78980368,7.44110021 4.32688976,8.57875778 5.18205105,7.64197196 C6.03721234,6.70518615 6.6581322,3.10908446 9.74693864,6.28444558 C12.9017848,9.52769699 9.21631126,9.7747177 8.29128168,10.7663165 C7.14230709,11.9979765 8.48371526,13.0156466 6.62791251,15.1573452 Z" fill="#E4B242"></path>
                    <path d="M13.6897688,3.29912694 L16,1.92698009 L16,0.963490046 L15.0379504,0 L14.0635699,0 L12.6344855,2.40418783 L7.81324245,7.22688102 L8.77529201,8.19037107 L13.6897688,3.29912694 Z M3,10.8684661 L5.12834712,13 L5.88614868,12.2410638 L3.75780155,10.1095299 L3,10.8684661 Z M6.84819823,10.1166455 C7.37952353,10.1166455 7.81024779,9.68527629 7.81024779,9.15315544 C7.81024779,8.62103458 7.37952353,8.18966539 6.84819823,8.18966539 C6.31687293,8.18966539 5.88614868,8.62103458 5.88614868,9.15315544 C5.88614868,9.68527629 6.31687293,10.1166455 6.84819823,10.1166455 Z" fill="#3F260F"></path>
                </g>
            </g>
        </g>
    </g>
</svg>