<?xml version="1.0" encoding="UTF-8" standalone="no"?>
<svg version="1.1" width="64px" height="64px" viewBox="0 0 18 18" xmlns="http://www.w3.org/2000/svg" xmlns:xlink="http://www.w3.org/1999/xlink">
<!-- <svg width="530px" height="64px" viewBox="0 0 530 " version="1.1" xmlns="http://www.w3.org/2000/svg" xmlns:xlink="http://www.w3.org/1999/xlink"> -->
    <!-- Generator: Sketch 40.3 (33839) - http://www.bohemiancoding.com/sketch -->
    <title>violino svg</title>
    <!-- <desc>Created with Sketch.</desc> -->
    <defs>
        <rect id="path-1" x="1" y="12" width="14" height="3"></rect>
    </defs>
    <g id="Page-1" stroke="none" stroke-width="1" fill="none" fill-rule="evenodd">
        <g id="icn">
            <g id="color_violino" transform="translate(0.000000, 0.000000)">
                <path d="M9.80067319,10.484368 C9.82726842,10.4517751 9.85190575,10.4239905 9.8744331,10.4014632 C11.046006,9.22989029 11.7531128,8.03750213 9.8744331,6.15882248 C7.99575344,4.28014282 6.80336528,4.9872496 5.63179241,6.15882248 C5.60926506,6.18134983 5.58148044,6.20598715 5.54888757,6.23258238 C5.77082232,6.83933654 5.54271888,7.66210957 4.92468563,8.28014282 C4.14363704,9.0611914 3.03559833,9.21948265 2.44981189,8.63369621 C2.35774749,8.54163181 2.28406214,8.43666754 2.22828488,8.32210018 C1.88663484,8.55768352 1.59191995,8.78448137 1.38915172,8.9872496 C-0.172945445,10.5493468 -0.732168622,12.5227835 1.38915172,14.6441038 C3.51047207,16.7654242 5.4839088,16.206201 7.04600597,14.6441038 C7.2487742,14.4413356 7.47557205,14.1466207 7.71115539,13.8049707 C7.59658803,13.7491934 7.49162376,13.6755081 7.39955936,13.5834437 C6.81377292,12.9976572 6.97206417,11.8896185 7.75311275,11.1085699 C8.371146,10.4905367 9.19391903,10.2624333 9.80067319,10.484368 L9.80067319,10.484368 L9.80067319,10.484368 Z" id="Combined-Shape" fill="#CB792F"></path>
                <path d="M5.03359144,8.20661109 C4.4964528,8.15961755 4.0895152,8.67110993 4.0365806,9.27615522 L3.81910425,11.7619212 C3.80223671,11.9547182 3.63059814,12.0991444 3.44205841,12.0826493 L3.19067642,12.0606563 C2.97060317,12.0414024 2.77659016,12.2041986 2.75733624,12.4242719 C2.73808233,12.6443451 2.90087857,12.8383581 3.12095183,12.857612 L3.37233381,12.8796051 C4.00151361,12.9346512 4.56072769,12.4640972 4.61606002,11.8316458 L4.83353637,9.34587982 C4.85255387,9.12850875 4.95273132,9.00259263 4.96386685,9.00356687 C5.18394011,9.02282078 5.37795311,8.86002454 5.39720703,8.63995128 C5.41646095,8.41987802 5.2536647,8.22586501 5.03359144,8.20661109 Z M6.02095184,8.20661109 C6.55809048,8.15961755 6.96502808,8.67110993 7.01796268,9.27615522 L7.23543902,11.7619212 C7.25230657,11.9547182 7.42394514,12.0991444 7.61248487,12.0826493 L7.86386685,12.0606563 C8.08394011,12.0414024 8.27795312,12.2041986 8.29720704,12.4242719 C8.31646095,12.6443451 8.15366471,12.8383581 7.93359145,12.857612 L7.68220946,12.8796051 C7.05302967,12.9346512 6.49381558,12.4640972 6.43848325,11.8316458 L6.22100691,9.34587982 C6.20198941,9.12850875 6.10181196,9.00259263 6.09067643,9.00356687 C5.87060317,9.02282078 5.67659016,8.86002454 5.65733625,8.63995128 C5.63808233,8.41987802 5.80087858,8.22586501 6.02095184,8.20661109 Z" id="Combined-Shape" fill="#3F260F" transform="translate(5.527272, 10.543796) rotate(-315.000000) translate(-5.527272, -10.543796) "></path>
                <path d="M13.5,1 C13.7761424,1 14,0.776142375 14,0.5 C14,0.223857625 13.7761424,0 13.5,0 C13.2238576,0 13,0.223857625 13,0.5 C13,0.776142375 13.2238576,1 13.5,1 Z M12.5,2 C12.7761424,2 13,1.77614237 13,1.5 C13,1.22385763 12.7761424,1 12.5,1 C12.2238576,1 12,1.22385763 12,1.5 C12,1.77614237 12.2238576,2 12.5,2 Z M14.5,4 C14.7761424,4 15,3.77614237 15,3.5 C15,3.22385763 14.7761424,3 14.5,3 C14.2238576,3 14,3.22385763 14,3.5 C14,3.77614237 14.2238576,4 14.5,4 Z M15.5,3 C15.7761424,3 16,2.77614237 16,2.5 C16,2.22385763 15.7761424,2 15.5,2 C15.2238576,2 15,2.22385763 15,2.5 C15,2.77614237 15.2238576,3 15.5,3 Z M9.45961943,7.45961943 L15.4596194,1.45961943 L14.5403806,0.540380567 L8.54038057,6.54038057 L9.45961943,7.45961943 Z" id="Combined-Shape" fill="#3F260F"></path>
                <path d="M3.49859855,13.480934 C3.71848843,13.2608899 2.71918916,12.3128449 2.49929927,12.5328889 L1.66491741,13.5710058 C1.44502753,13.7910499 1.44502753,14.1478118 1.66491741,14.3678559 C1.88480729,14.5878999 2.24131923,14.5878999 2.46120912,14.3678559 L3.49859855,13.480934 Z" id="Path-17" fill="#3F260F"></path>
                <path d="M3.22925017,2.46830439 L7.21949552,13.6467808 C7.31232415,13.9068356 7.59828355,14.0423603 7.85820371,13.9494835 C8.11812387,13.8566068 8.25357832,13.5704992 8.16074969,13.3104444 L4.17050435,2.13196799 C4.07767572,1.87191314 3.79171632,1.7363885 3.53179616,1.82926523 C3.27187599,1.92214197 3.13642154,2.20824954 3.22925017,2.46830439 L3.22925017,2.46830439 Z" id="Path-237" fill="#ECC01B"></path>
                <path d="M3.52912904,1.1681682 L8.52912904,15.1681682 C8.62200578,15.428223 8.90811335,15.5637477 9.1681682,15.470871 C9.42822305,15.3779942 9.56374769,15.0918866 9.47087096,14.8318318 L4.47087096,0.831831802 C4.37799422,0.571776953 4.09188665,0.436252313 3.8318318,0.529129044 C3.57177695,0.622005776 3.43625231,0.90811335 3.52912904,1.1681682 L3.52912904,1.1681682 Z" id="Path-237" fill="#3F260F"></path>
            </g>
        </g>
    </g>
</svg>