<?xml version="1.0" encoding="UTF-8" standalone="no"?>
<svg version="1.1" width="64px" height="64px" viewBox="0 0 18 18" xmlns="http://www.w3.org/2000/svg" xmlns:xlink="http://www.w3.org/1999/xlink">
<!-- <svg width="530px" height="64px" viewBox="0 0 530 " version="1.1" xmlns="http://www.w3.org/2000/svg" xmlns:xlink="http://www.w3.org/1999/xlink"> -->
    <!-- Generator: Sketch 40.3 (33839) - http://www.bohemiancoding.com/sketch -->
    <title>zabumba svg</title>
    <!-- <desc>Created with Sketch.</desc> -->
    <defs>
        <rect id="path-1" x="1" y="12" width="14" height="3"></rect>
    </defs>
    <g id="Page-1" stroke="none" stroke-width="1" fill="none" fill-rule="evenodd">
        <g id="icn">
            <g id="color_zabumba" transform="translate(0.000000, 0.000000)">
                <g>
                    <g id="cores" transform="translate(1.000000, 9.000000)">
                        <polygon id="cor_1" fill="#CB792F" points="0 0 3 6 0 6"></polygon>
                        <polygon id="cor_1-copy" fill="#CB792F" points="12 0 12 6 9 6"></polygon>
                        <polygon id="cor_1-copy-3" fill="#FF9900" points="0 0 6 0 3 6"></polygon>
                        <polygon id="cor_1-copy-4" fill="#FF9900" points="6 0 12 0 9 6"></polygon>
                        <polygon id="cor_1-copy-2" fill="#FFCA00" points="6 0 9 6 3 6"></polygon>
                    </g>
                    <path d="M2,15 C2,14.4477153 1.55228475,14 1,14 C0.44771525,14 0,14.4477153 0,15 C0,15.5522847 0.44771525,16 1,16 L13,16 C13.5522847,16 14,15.5522847 14,15 C14,14.4477153 13.5522847,14 13,14 C12.4477153,14 12,14.4477153 12,15 L8,15 C8,14.4477153 7.55228475,14 7,14 C6.44771525,14 6,14.4477153 6,15 L2,15 Z M13,8 L1,8 C0.44771525,8 0,8.44771525 0,9 C0,9.55228475 0.44771525,10 1,10 C1.55228475,10 2,9.55228475 2,9 L6,9 C6,9.55228475 6.44771525,10 7,10 C7.55228475,10 8,9.55228475 8,9 L12,9 C12,9.55228475 12.4477153,10 13,10 C13.5522847,10 14,9.55228475 14,9 C14,8.44771525 13.5522847,8 13,8 Z" id="metais" fill="#424242"></path>
                    <g id="baqueta" transform="translate(6.000000, 0.000000)">
                        <path d="M6.76384191,1.28033009 C7.07871936,0.987436867 7.07871936,0.512563133 6.76384191,0.219669914 C6.44896446,-0.0732233047 5.93844724,-0.0732233047 5.62356979,0.219669914 C5.62356979,0.219669914 0.5,5.5 1.01211739,6 C1.52423478,6.5 6.76384191,1.28033009 6.76384191,1.28033009 Z" id="cabo" fill="#ECC01B"></path>
                        <circle id="cabeca" fill="#CB792F" cx="2" cy="5" r="2"></circle>
                    </g>
                </g>
            </g>
        </g>
    </g>
</svg>