<?xml version="1.0" encoding="UTF-8" standalone="no"?>
<svg width="530px" height="16px" viewBox="0 0 530 16" version="1.1" xmlns="http://www.w3.org/2000/svg" xmlns:xlink="http://www.w3.org/1999/xlink">
    <!-- Generator: Sketch 40.3 (33839) - http://www.bohemiancoding.com/sketch -->
    <title>icn</title>
    <desc>Created with Sketch.</desc>
    <defs>
        <rect id="path-1" x="1" y="12" width="14" height="3"></rect>
    </defs>
    <g id="Page-1" stroke="none" stroke-width="1" fill="none" fill-rule="evenodd">
        <g id="icn">
            <g id="color_guitarra" transform="translate(32.000000, -1.000000)">
                <path d="M6.00482178,17 C5,17 5,16 5,16 L5,12 L1,12 C1,12 3.47010671e-17,12 0,11.0275269 C3.47010671e-17,10.505249 1,10.0293376 1,10 C1,9.99484899 9,6 9,6 L11,6 L11,8 L7,16 C7,16 6.54486084,17 6.00482178,17 Z" id="Path-14" fill="#FF9900"></path>
                <polygon id="Path-15" fill="#FFFFFF" points="7 14 10 8.00421143 10 7 7 10"></polygon>
                <path d="M9,9 L14,4 C14,4 14.9268464,3.90845079 15,4 C15.151332,3.68493937 16.1464711,1.19186633 16,1 C15.8055818,0.851946553 13.6019007,1.56361354 13,2 C13.110507,2.05287459 13,3 13,3 L8,8 L9,9 Z" id="Combined-Shape" fill="#3F260F"></path>
                <polygon id="Path-16" fill="#3F260F" points="4.66939583 10.3656994 6.64141828 12.3377218 7.34852506 11.6306151 5.37650261 9.65859261"></polygon>
            </g>
            <g id="color_cavaco" transform="translate(64.000000, 0.000000)">
                <path d="M7.29957628,15.2750573 C4.68416058,18.2787896 -2.41881245,11.1547369 0.838552605,8.36910308 C2.59630436,6.86590873 4.15980056,7.86727096 5.01257086,7.0268899 C6.07363326,5.98124285 6.26501465,1.64111319 10.3090277,5.75528745 C14.3530407,9.8694617 9.85540168,9.80517464 9.0119772,11.0109207 C8.08335867,12.3384588 9.09018267,13.2185955 7.29957628,15.2750573 Z" id="Combined-Shape" fill="#CB792F"></path>
                <path d="M15.5128174,1.50738525 L14.5128174,0.507385254 L8.00311279,7.00811768 L9.00311279,8.00811768 L15.5128174,1.50738525 Z M13.5,1 C13.7761424,1 14,0.776142375 14,0.5 C14,0.223857625 13.7761424,0 13.5,0 C13.2238576,0 13,0.223857625 13,0.5 C13,0.776142375 13.2238576,1 13.5,1 Z M12.5,2 C12.7761424,2 13,1.77614237 13,1.5 C13,1.22385763 12.7761424,1 12.5,1 C12.2238576,1 12,1.22385763 12,1.5 C12,1.77614237 12.2238576,2 12.5,2 Z M14.5,4 C14.7761424,4 15,3.77614237 15,3.5 C15,3.22385763 14.7761424,3 14.5,3 C14.2238576,3 14,3.22385763 14,3.5 C14,3.77614237 14.2238576,4 14.5,4 Z M15.5,3 C15.7761424,3 16,2.77614237 16,2.5 C16,2.22385763 15.7761424,2 15.5,2 C15.2238576,2 15,2.22385763 15,2.5 C15,2.77614237 15.2238576,3 15.5,3 Z M3,10.7876949 L5.21230508,13 L6,12.2123051 L3.78769492,10 L3,10.7876949 Z M7,10.5 C7.82842712,10.5 8.5,9.82842712 8.5,9 C8.5,8.17157288 7.82842712,7.5 7,7.5 C6.17157288,7.5 5.5,8.17157288 5.5,9 C5.5,9.82842712 6.17157288,10.5 7,10.5 Z" id="Combined-Shape" fill="#3F260F"></path>
            </g>
            <g id="color_teclado" transform="translate(80.000000, 0.000000)">
                <polygon id="Teclado" fill="#424242" points="0 9 7 16 16 7 9 0"></polygon>
                <g id="Controles" transform="translate(3.000000, 3.000000)">
                    <circle id="Oval-8" fill="#61B406" cx="6.5" cy="0.5" r="0.5"></circle>
                    <circle id="Oval-8" fill="#FF5127" cx="0.5" cy="6.5" r="0.5"></circle>
                    <polygon id="Path-36" fill="#61B406" points="1.51037598 4.53454588 2.52197266 5.54504392 5.55493164 2.52233887 4.53182075 1.49922798"></polygon>
                </g>
                <g id="Teclas" transform="translate(5.000000, 5.000000)" fill="#FFFFFF">
                    <polygon id="Path-18" points="0 7 2 9 3 8 1 6"></polygon>
                    <polygon id="Path-18" points="2 5 4 7 5 6 3 4"></polygon>
                    <polygon id="Path-18" points="4 3 6 5 7 4 5 2"></polygon>
                    <polygon id="Path-18" points="7.30957031 2.29553223 2.00341797 7.58837891 2.00341797 8.987854 9 2 7 0 6 1"></polygon>
                </g>
            </g>
            <g id="color_gaita" transform="translate(96.000000, 0.000000)">
                <g id="Group-2">
                    <path d="M0.704832956,10.295167 C0.315564463,10.6844355 0.312772393,11.3127724 0.70577316,11.7057732 L4.29422684,15.2942268 C4.68401459,15.6840146 5.31734562,15.6826544 5.70483296,15.295167 L15.295167,5.70483296 C15.6844355,5.31556446 15.6872276,4.68722761 15.2942268,4.29422684 L11.7057732,0.70577316 C11.3159854,0.315985407 10.6826544,0.317345619 10.295167,0.704832956 L0.704832956,10.295167 Z" id="Fundo" fill="#DFA72A"></path>
                    <g id="sopro" transform="translate(6.000000, 6.000000)" fill="#B07903">
                        <circle id="Oval-11" cx="7.5" cy="0.5" r="0.5"></circle>
                        <circle id="Oval-11" cx="6.5" cy="1.5" r="0.5"></circle>
                        <circle id="Oval-11" cx="5.5" cy="2.5" r="0.5"></circle>
                        <circle id="Oval-11" cx="4.5" cy="3.5" r="0.5"></circle>
                        <circle id="Oval-11" cx="3.5" cy="4.5" r="0.5"></circle>
                        <circle id="Oval-11" cx="2.5" cy="5.5" r="0.5"></circle>
                        <circle id="Oval-11" cx="1.5" cy="6.5" r="0.5"></circle>
                        <circle id="Oval-11" cx="0.5" cy="7.5" r="0.5"></circle>
                    </g>
                    <path d="M0.704832956,10.295167 C0.315564463,10.6844355 0.317176337,11.3172203 0.708587502,11.7086856 L3.70169076,14.7022035 C4.09303283,15.0935998 4.72762388,15.0935435 5.11511122,14.7060562 L14.7054453,5.11572209 C15.0947138,4.72645359 15.0931019,4.09366886 14.7016908,3.70220348 L11.7085875,0.708685648 C11.3172454,0.317289372 10.6826544,0.317345619 10.295167,0.704832956 L0.704832956,10.295167 Z" id="Topo" fill="#ECC01B"></path>
                </g>
                <path d="M9.01635742,2.98364258 L3.06182861,8.93817139 C2.60894594,9.39105406 2.25753454,12.2575345 2.53082275,12.5308228 C2.78356246,12.7835625 5.58847881,12.4115212 6.03112793,11.9688721 C7.67508932,10.3249107 10.4338789,7.56612108 12.0365601,5.96343994 C12.7949617,5.20503832 12.7812024,2.78120244 12.5272827,2.52728271 C12.2551745,2.25517452 9.44327078,2.55672922 9.01635742,2.98364258 Z" id="Capa" fill="#E6E6E6"></path>
                <g id="Parafusos" transform="translate(3.000000, 3.000000)" fill="#8F9ABB">
                    <circle id="Oval-11" cx="0.5" cy="8.5" r="0.5"></circle>
                    <circle id="Oval-11" cx="8.5" cy="0.5" r="0.5"></circle>
                </g>
                <g id="Iluminacao" transform="translate(3.000000, 3.000000)">
                    <path d="M0.862567698,6.88920516 L6.88920516,0.862567698 C7.36060968,0.391163177 6.6535029,-0.315943604 6.18209838,0.155460917 L0.155460917,6.18209838 C-0.315943604,6.6535029 0.391163177,7.36060968 0.862567698,6.88920516 Z" id="Path-27" fill="#FFFFFF"></path>
                    <path d="M2.8625677,8.88920516 L8.88920516,2.8625677 C9.36060968,2.39116318 8.6535029,1.6840564 8.18209838,2.15546092 L2.15546092,8.18209838 C1.6840564,8.6535029 2.39116318,9.36060968 2.8625677,8.88920516 Z" id="Path-27" fill="#C5C5C5"></path>
                </g>
            </g>
            <g id="color_guitar_pro" transform="translate(128.000000, 0.000000)">
                <path d="M0,1.00087166 C0,0.448105505 0.455664396,0 0.995397568,0 L10,0 L13,3 L13,15.0014977 C13,15.5529553 12.5525106,16 12.0014977,16 L0.998502329,16 C0.44704472,16 0,15.5553691 0,14.9991283 L0,1.00087166 Z" id="Fundo" fill="#9E9E9E"></path>
                <path d="M2.00752077,1 L9.58380127,1 L12,3.41149902 L12,13.9918688 C12,14.5486443 11.544239,15 10.9975267,15 L2.00247329,15 C1.44882258,15 1,14.5500512 1,13.9931545 L1,2.00684547 C1,1.45078007 1.44939221,1 2.00752077,1 Z M9,4 L9,1 L8,1 L8,5 L9,5 L9,4 L12,4 L12,5 L8,5 L8,4 L9,4 Z" id="Combined-Shape" fill="#FFFFFF"></path>
                <path d="M5,10 L5,8 L3,8 L3,10 L5,10 Z M3,13 L3,12 L5,12 L5,11 L2.99895656,11 C2.44724809,11 2,10.5566468 2,9.9906311 L2,8.0093689 C2,7.45190985 2.44335318,7 3.0093689,7 L4.9906311,7 C5.54809015,7 6,7.45097518 6,7.99077797 L6,12.009222 C6,12.5564136 5.55733967,13 5.00104344,13 L3,13 Z M10,10 L10,8 L8,8 L8,10 L10,10 Z M7,13 L7,7.99077797 C7,7.44358641 7.44335318,7 8.0093689,7 L9.9906311,7 C10.5480902,7 11,7.44335318 11,8.0093689 L11,9.9906311 C11,10.5480902 10.5573397,11 10.0010434,11 L8,11 L8,13 L7,13 Z" id="gp" fill="#FF4840"></path>
            </g>
            <g id="color_partitura" transform="translate(144.000000, 0.000000)">
                <path d="M0,1.00087166 C0,0.448105505 0.455664396,0 0.995397568,0 L10,0 L13,3 L13,15.0014977 C13,15.5529553 12.5525106,16 12.0014977,16 L0.998502329,16 C0.44704472,16 0,15.5553691 0,14.9991283 L0,1.00087166 Z" id="Fundo" fill="#9E9E9E"></path>
                <path d="M2.00752077,1 L9.58380127,1 L12,3.41149902 L12,13.9918688 C12,14.5486443 11.544239,15 10.9975267,15 L2.00247329,15 C1.44882258,15 1,14.5500512 1,13.9931545 L1,2.00684547 C1,1.45078007 1.44939221,1 2.00752077,1 Z M9,4 L9,1 L8,1 L8,5 L9,5 L9,4 L12,4 L12,5 L8,5 L8,4 L9,4 Z" id="Combined-Shape" fill="#FFFFFF"></path>
                <path d="M6.5,6 L6,6 L6,10.2006733 C5.70582663,10.0730457 5.36428714,10 5,10 C3.8954305,10 3,10.6715729 3,11.5 C3,12.3284271 3.8954305,13 5,13 C6.1045695,13 7,12.3284271 7,11.5 C7,11.4764479 6.99927626,11.4530225 6.99784455,11.4297358 L7,11.4306641 L7,8 L9,8 L9,6 L6.5,6 L6.5,6 Z" id="Combined-Shape" fill="#424242"></path>
            </g>
            <g id="color_letra" transform="translate(1.000000, 0.000000)">
                <path d="M0,1.00087166 C0,0.448105505 0.455664396,0 0.995397568,0 L10,0 L13,3 L13,15.0014977 C13,15.5529553 12.5525106,16 12.0014977,16 L0.998502329,16 C0.44704472,16 0,15.5553691 0,14.9991283 L0,1.00087166 Z" id="Fundo" fill="#9E9E9E"></path>
                <path d="M2.00752077,1 L9.58380127,1 L12,3.41149902 L12,13.9918688 C12,14.5486443 11.544239,15 10.9975267,15 L2.00247329,15 C1.44882258,15 1,14.5500512 1,13.9931545 L1,2.00684547 C1,1.45078007 1.44939221,1 2.00752077,1 Z M9,4 L9,1 L8,1 L8,5 L9,5 L9,4 L12,4 L12,5 L8,5 L8,4 L9,4 Z" id="Combined-Shape" fill="#FFFFFF"></path>
                <g id="letra" transform="translate(3.000000, 3.000000)">
                    <rect id="Rectangle-5" fill="#424242" x="0" y="2" width="3" height="1"></rect>
                    <rect id="Rectangle-5" fill="#424242" x="0" y="5" width="7" height="1"></rect>
                    <rect id="Rectangle-5" fill="#424242" x="0" y="7" width="4" height="1"></rect>
                    <rect id="Rectangle-5" fill="#424242" x="0" y="9" width="6" height="1"></rect>
                    <rect id="Rectangle-5" fill="#FF9900" x="0" y="0" width="2" height="1"></rect>
                </g>
            </g>
            <g id="Violao" transform="translate(16.000000, 0.000000)">
                <path d="M7.29957628,15.2750573 C4.68416058,18.2787896 -2.41881245,11.1547369 0.838552605,8.36910308 C2.59630436,6.86590873 4.46420763,7.2046317 5.31697793,6.36425064 C6.37804033,5.31860359 6.42198443,1.97607734 10.3090277,5.75528745 C8.5871582,8.8125 11.7026367,8.69177246 11.9698788,8.15249244 C12.2841226,9.73401692 10.0499148,10.0958003 9.43716358,10.9717795 C8.50854505,12.2993176 9.09018267,13.2185955 7.29957628,15.2750573 Z" id="Combined-Shape" fill="#E4B242"></path>
                <path d="M14.0155956,2.9999627 L14.9728394,2.78320312 L16,1.0255127 L14.9728394,-1.11022302e-16 L13.2423706,1.0255127 L13.0216858,1.99389134 L8.4941963,6.52420664 L9.51500928,7.51541758 L14.0155956,2.9999627 Z M3,10.7876949 L5.21230508,13 L6,12.2123051 L3.78769492,10 L3,10.7876949 Z" id="Combined-Shape" fill="#3F260F"></path>
                <circle id="Oval-6" fill="#3F260F" cx="7.5" cy="8.5" r="1.5"></circle>
            </g>
            <g id="color_baixo" transform="translate(48.000000, 0.000000)">
                <path d="M0.129943848,10.4354249 C0.723876936,7.92462169 3.12917966,8.79196102 4.375,7.5333863 C5.62082034,6.27481157 5.91479529,4.03220441 7.10031014,4.02568829 C7.70959454,4.02233939 8.37439734,4.29034421 7.56347662,4.96929932 C6.75255591,5.64825442 6.83866675,6.70825324 7.56347662,7.02685557 C8.2882865,7.3454579 8.94683844,8.88415514 8.57501227,9.39776598 C8.2031861,9.91137682 8.92605299,10.9501526 9.85258198,10.2739469 C10.779111,9.59774113 10.9076085,10.5785612 10.5120848,11.1079713 C10.3600622,11.3114542 8.94732655,11.8333741 8.94732648,11.8333741 C6.50146466,13.1940914 7.92608651,15.9890114 4.54449471,15.9890133 C1.23999021,15.9890152 -0.46398924,12.9462281 0.129943848,10.4354249 Z" id="Path-12" fill="#FF5127"></path>
                <path d="M14.3531494,3.18408212 L15.0005493,2.81195061 C15.0005493,2.81195061 15.9255371,1.5287165 15.9898844,0.699093044 C16.0065084,0.484762125 15.4627111,0.0061924507 15.2042545,0.0457296224 C14.3665213,0.173881135 13.1849365,1.0165405 13.1849365,1.0165405 L12.8568726,1.69989011 L5.51348877,8.49041707 L7.51049805,10.537231 L14.3531494,3.18408212 Z M4.21230508,14 L5,13.2123051 L2.78769492,11 L2,11.7876949 L4.21230508,14 Z" id="Combined-Shape" fill="#424242"></path>
            </g>
            <g id="color_ukulele" transform="translate(159.000000, 0.000000)">
                <path d="M0.832112167,9.30483381 C1.64148212,8.49063466 4.40275309,5.83648408 6.13118765,4.78429453 C7.63912635,4.01849769 10.0106201,6.00115962 10.0106201,6.00115962 C10.0106201,6.00115962 11.9858597,8.37816047 11.2202677,9.90373912 C10.1743189,11.6424866 7.61943624,14.2719211 6.81006628,15.0861203 C5.89440383,16.0072461 4.55893033,16.8969314 1.87552943,14.2013422 C-0.807871462,11.5057531 -0.0873423076,10.2297743 0.832112167,9.30483381 Z" id="Combined-Shape" fill="#CB792F"></path>
                <circle id="Oval-6" fill="#3F260F" cx="7.5" cy="8.5" r="1.5"></circle>
                <path d="M10.0303866,7.00727017 L15.5128174,1.50738525 L14.5128174,0.507385254 C14.5128174,0.507385254 11.0219957,4.01804056 9.04487506,5.99279905 C9.04236859,5.99530252 9.03735566,7.00030947 9.03735566,7.00030947 L10.0303866,7.00727017 Z M13.5,1 C13.7761424,1 14,0.776142375 14,0.5 C14,0.223857625 13.7761424,0 13.5,0 C13.2238576,0 13,0.223857625 13,0.5 C13,0.776142375 13.2238576,1 13.5,1 Z M12.5,2 C12.7761424,2 13,1.77614237 13,1.5 C13,1.22385763 12.7761424,1 12.5,1 C12.2238576,1 12,1.22385763 12,1.5 C12,1.77614237 12.2238576,2 12.5,2 Z M14.5,4 C14.7761424,4 15,3.77614237 15,3.5 C15,3.22385763 14.7761424,3 14.5,3 C14.2238576,3 14,3.22385763 14,3.5 C14,3.77614237 14.2238576,4 14.5,4 Z M15.5,3 C15.7761424,3 16,2.77614237 16,2.5 C16,2.22385763 15.7761424,2 15.5,2 C15.2238576,2 15,2.22385763 15,2.5 C15,2.77614237 15.2238576,3 15.5,3 Z M3,10.7876949 L5.21230508,13 L6,12.2123051 L3.78769492,10 L3,10.7876949 Z" id="Combined-Shape" fill="#3F260F"></path>
            </g>
            <g id="color_bateria" transform="translate(113.000000, 0.000000)">
                <rect id="Rectangle-4" fill="#C5C5C5" x="1" y="10" width="10" height="5"></rect>
                <rect id="Rectangle-4" fill-opacity="0.119999997" fill="#000000" x="8" y="10" width="3" height="5"></rect>
                <rect id="Rectangle-4" fill-opacity="0.300000012" fill="#FFFFFF" x="1" y="10" width="3" height="5"></rect>
                <g id="Group-4" transform="translate(0.000000, 9.000000)" fill="#424242">
                    <rect id="Rectangle-2" x="1" y="0" width="10" height="1"></rect>
                    <circle id="Oval-31" cx="1" cy="1" r="1"></circle>
                    <circle id="Oval-31" cx="6" cy="1" r="1"></circle>
                    <circle id="Oval-31" cx="11" cy="1" r="1"></circle>
                </g>
                <g id="Group-3" transform="translate(0.000000, 14.000000)" fill="#424242">
                    <rect id="Rectangle-2" x="1" y="1" width="10" height="1"></rect>
                    <path d="M1,2 C1.55228475,2 2,1.55228475 2,1 C2,0.44771525 1.55228475,0 1,0 C0.44771525,0 0,0.44771525 0,1 C0,1.55228475 0.44771525,2 1,2 Z" id="Oval-31"></path>
                    <circle id="Oval-31" cx="6" cy="1" r="1"></circle>
                    <circle id="Oval-31" cx="11" cy="1" r="1"></circle>
                </g>
                <path d="M6.42540218,6.65027525 C5.89134456,7.61450865 5.27253105,7.61450851 5.27253105,7.61450851 C4.88200676,8.0050328 4.98501156,8.5058656 5.12877131,8.67615368 C5.27253106,8.84644177 5.8275634,8.91586043 6.21808769,8.52533614 C6.21808769,8.52533614 6.52940609,7.81445982 7.22349788,7.48511412 C8.92646096,5.78215105 12.9116082,1.94177904 12.9116082,1.94177904 C13.3021325,1.55125475 13.539328,0.990499884 13.1488037,0.599975592 C12.7582794,0.2094513 12.2796716,0.391464661 11.8891473,0.781988953 C11.8891473,0.781988953 8.14002297,4.93565447 6.42540218,6.65027525 Z" id="Path-35" fill="#ECC01B"></path>
                <path d="M2.34889002,5.99001171 C1.93917849,6.72974003 1.464445,6.72973992 1.464445,6.72973992 C1.16484754,7.02933738 1.24386946,7.41355993 1.35415723,7.54419938 C1.46444501,7.67483883 1.89024767,7.72809455 2.18984513,7.42849709 C2.18984513,7.42849709 2.42867842,6.88313603 2.96116294,6.63047278 C4.26762051,5.32401521 7.32489516,2.37780742 7.32489516,2.37780742 C7.62449262,2.07820996 7.76638705,1.70669625 7.46678958,1.40709878 C7.16719212,1.10750132 6.84009403,1.18845694 6.54049657,1.4880544 C6.54049657,1.4880544 3.66429101,4.67461072 2.34889002,5.99001171 Z" id="Path-35" fill="#ECC01B" transform="translate(4.444037, 4.433688) rotate(-30.000000) translate(-4.444037, -4.433688) "></path>
            </g>
            <g id="aula" transform="translate(175.000000, 2.000000)" fill="#FF7700">
                <path d="M0,1.00247329 C0,0.448822582 0.444630861,0 1.00087166,0 L14.9991283,0 C15.5518945,0 16,0.455760956 16,1.00247329 L16,10.9975267 C16,11.5511774 15.5553691,12 14.9991283,12 L1.00087166,12 C0.448105505,12 0,11.544239 0,10.9975267 L0,1.00247329 Z M11,6 L6,9 L6,3 L11,6 Z" id="icone_cinza_aula"></path>
            </g>
            <g id="color_canto" transform="translate(191.000000, 0.000000)">
                <g transform="translate(1.000000, 1.000000)">
                    <path d="M12.5876854,5.58768539 C13.8670212,4.29622039 14.7845249,2.91325898 12.935633,1.06436704 C11.086741,-0.784524889 9.75747755,0.0671516719 8.41231461,1.41231461 C7.06715167,2.75747755 6.21547511,4.08674102 8.06436704,5.93563296 C9.91325898,7.78452489 11.3083496,6.87915039 12.5876854,5.58768539 Z" id="mic" fill="#9E9E9E"></path>
                    <path d="M12.9486273,5.20776811 C12.8332154,5.33550334 12.7121632,5.46202747 12.5876854,5.58768539 C12.4747081,5.70173381 12.3608281,5.81277128 12.2458125,5.91916689 L8.08164354,1.75499788 C8.18740727,1.64066613 8.29808152,1.5265477 8.41231461,1.41231461 C8.53825219,1.28637702 8.66405042,1.16476494 8.79014874,1.04928952 L12.9486273,5.20776811 Z" id="mic_gola" fill="#C9C9C9"></path>
                    <path d="M7.02087402,4.15545654 L0.505861406,11.5736313 C0.505861406,11.5736313 -0.492603103,12.7957022 0.315986598,13.6294468 C1.1245763,14.4631915 2.21704271,13.6294468 2.21704271,13.6294468 L9.91412354,6.96130371 L7.02087402,4.15545654 Z" id="cabo" fill="#424242"></path>
                    <polygon id="Combined-Shape" fill="#FF4840" points="8.86826687 7.86735135 9.91412354 6.96130371 7.02087402 4.15545654 6.14905242 5.14813689 8.86826687 7.86735135"></polygon>
                    <path d="M6.61957919,4.59931552 L7.02087402,4.15545654 L9.91412354,6.96130371 L9.42172157,7.4014579 L6.61957919,4.59931552 Z" id="gola_sombra" fill="#E54039"></path>
                    <circle id="luz_ativa" fill="#61B406" cx="6.5" cy="7.5" r="0.5"></circle>
                </g>
            </g>
            <g id="color_audio" transform="translate(207.000000, 2.000000)">
                <g transform="translate(0.000000, -1.000000)">
                    <path d="M0,13.0014977 C0,13.5525106 0.448105505,14 1.00087166,14 L14.9991283,14 C15.5553691,14 16,13.5529553 16,13.0014977 L16,4.99850233 L0,4.99850233 L0,13.0014977 Z" id="caixa" fill="#424242"></path>
                    <path d="M0,4.00149767 C0,4.55251057 0.448105505,5 1.00087166,5 L14.9991283,5 C15.5553691,5 16,4.55295528 16,4.00149767 L16,0.998502329 L0,0.998502329 L0,4.00149767 Z" id="caixa" fill="#CB792F" transform="translate(8.000000, 2.999251) scale(1, -1) translate(-8.000000, -2.999251) "></path>
                    <g id="controles" transform="translate(1.000000, 2.000000)">
                        <rect id="Rectangle-14" fill="#ECC01B" x="0" y="0" width="14" height="3"></rect>
                        <rect id="Rectangle-18" fill="#FF4840" x="12" y="1" width="1" height="1"></rect>
                        <circle id="Oval-6" fill="#424242" cx="1.5" cy="1.5" r="0.5"></circle>
                        <circle id="Oval-6" fill="#CB792F" cx="3.5" cy="1.5" r="0.5"></circle>
                        <circle id="Oval-6" fill="#CB792F" cx="5.5" cy="1.5" r="0.5"></circle>
                        <circle id="Oval-6" fill="#CB792F" cx="7.5" cy="1.5" r="0.5"></circle>
                    </g>
                    <g id="falante" transform="translate(1.000000, 5.000000)">
                        <rect id="bg" fill="#CB792F" x="0" y="0" width="14" height="8"></rect>
                        <path d="M0.679405594,4.36807976 L3.65947764,7.3481518 L4.36658442,6.64104502 L1.38651237,3.66097298 L0.679405594,4.36807976 Z M9.67940559,1.36807976 L12.6594776,4.3481518 L13.3665844,3.64104502 L10.3865124,0.660972977 L9.67940559,1.36807976 Z M0.686363602,1.36881218 L6.69796505,7.38041362 L7.40507183,6.67330684 L1.39347038,0.661705398 L0.686363602,1.36881218 Z M3.6863636,1.36881218 L9.69796505,7.38041362 L10.4050718,6.67330684 L4.39347038,0.661705398 L3.6863636,1.36881218 Z M6.6863636,1.36881218 L12.697965,7.38041362 L13.4050718,6.67330684 L7.39347038,0.661705398 L6.6863636,1.36881218 Z" id="grade" fill="#D7942C"></path>
                        <path d="M4.50952148,6 C4.78040529,6 5,6.23193359 5,6.5 L5,6.5 C5,6.77614237 4.78494263,7 4.50952148,7 L1.49047852,7 C1.21959471,7 1,6.76806641 1,6.5 L1,6.5 C1,6.22385763 1.21505737,6 1.49047852,6 L4.50952148,6 Z" id="logo" fill="#ECC01B"></path>
                    </g>
                </g>
            </g>
            <g id="color_viola" transform="translate(223.000000, 0.000000)">
                <g id="Combined-Shape">
                    <path d="M6.62791251,15.1573452 C3.91726897,18.285577 -2.40791458,11.9076929 0.968051818,9.00659937 C2.78980368,7.44110021 4.32688976,8.57875778 5.18205105,7.64197196 C6.03721234,6.70518615 6.6581322,3.10908446 9.74693864,6.28444558 C12.9017848,9.52769699 9.21631126,9.7747177 8.29128168,10.7663165 C7.14230709,11.9979765 8.48371526,13.0156466 6.62791251,15.1573452 Z" fill="#E4B242"></path>
                    <path d="M13.6897688,3.29912694 L16,1.92698009 L16,0.963490046 L15.0379504,0 L14.0635699,0 L12.6344855,2.40418783 L7.81324245,7.22688102 L8.77529201,8.19037107 L13.6897688,3.29912694 Z M3,10.8684661 L5.12834712,13 L5.88614868,12.2410638 L3.75780155,10.1095299 L3,10.8684661 Z M6.84819823,10.1166455 C7.37952353,10.1166455 7.81024779,9.68527629 7.81024779,9.15315544 C7.81024779,8.62103458 7.37952353,8.18966539 6.84819823,8.18966539 C6.31687293,8.18966539 5.88614868,8.62103458 5.88614868,9.15315544 C5.88614868,9.68527629 6.31687293,10.1166455 6.84819823,10.1166455 Z" fill="#3F260F"></path>
                </g>
            </g>
            <g id="color_sax" transform="translate(241.000000, 0.000000)">
                <g>
                    <path d="M6.16753375,1.48175028 C6.40585727,1.21299002 6.80098072,1.35212494 6.51276438,1.80708775 C6.22454803,2.26205056 1.26622475,8.84980056 1.26622475,8.84980056 C1.26622475,8.84980056 -2.03227241,13.2384816 2.05093839,15.4796078 C4.89267571,17.0393343 6.64632411,14.7152246 7.26878996,13.385229 C7.89125582,12.0552334 8.33464107,11.641848 9.03847092,11.4978197 C9.74230077,11.3537914 9.98225557,11.4513491 10.3274861,11.7766865 C10.6727166,12.1020239 11.134364,11.9928889 11.0108259,11.4608586 C10.8872877,10.9288283 10.072852,8.38226897 9.48114239,6.49410282 C9.2923358,5.89161438 8.85052058,5.99250936 8.69029851,6.71460135 C8.53617368,7.40921414 8.15098692,7.73425923 7.55243251,8.10606723 C6.9538781,8.47787522 6.30442172,9.03561539 5.66470341,10.0616313 C5.0249851,11.0876471 4.40477106,13.1500077 3.59180582,12.8323885 C2.77884058,12.5147694 3.05933867,11.5920723 3.29989022,11.1908614 C3.54044177,10.7896505 7.92129839,4.24674019 8.55593936,3.1195782 C9.19058034,1.99241621 8.94410147,0.429587507 7.67171712,0.088653196 C6.08899527,-0.335435894 5.55354289,0.918089305 4.50269127,2.23308496 C4.13482014,2.69342488 3.92625858,3.14301061 3.08552187,3.54971171 C2.5243402,3.82117982 1.47636169,3.35137174 1.04115286,3.23475788 C0.358410108,3.05181751 0.29737666,3.90027267 0.918051891,4.0665821 C1.90903102,4.33211415 2.71741964,4.77063086 3.70560007,4.21478945 C4.57418666,3.72621836 5.65748232,2.05694132 6.16753375,1.48175028 Z" id="Path-12" fill="#ECC01B"></path>
                    <path d="M2.58664614,3.6435969 C2.03973153,3.6130289 1.38415967,3.33429493 1.06276559,3.24817765 C0.380022841,3.06523728 0.318989393,3.91369244 0.939664624,4.08000186 C1.44672977,4.21586956 1.90598954,4.39702764 2.3659912,4.46709074 L2.58664572,3.64359687 L2.58664614,3.6435969 L2.58664614,3.6435969 Z" id="Combined-Shape" fill="#CB792F"></path>
                    <path d="M6.9786178,5.64003351 C6.95681342,5.63666195 6.93497276,5.63207774 6.91317279,5.62623646 C6.5875228,5.53897881 6.39426762,5.20425103 6.48152527,4.87860104 C6.56878293,4.55295104 6.90351071,4.35969587 7.2291607,4.44695352 C7.38218154,4.48795533 7.50596961,4.58359855 7.5851573,4.70726568 C7.39735067,4.99779184 7.19293071,5.31199729 6.9786178,5.64003351 L6.9786178,5.64003351 L6.9786178,5.64003351 Z M5.88395436,7.30705344 C5.85663507,7.30359447 5.82922791,7.29824554 5.80188475,7.29091896 C5.47623476,7.20366131 5.28297958,6.86893353 5.37023724,6.54328354 C5.45749489,6.21763355 5.79222267,6.02437837 6.11787266,6.11163602 C6.27902143,6.15481571 6.40774946,6.25859567 6.48610796,6.39188766 C6.28765139,6.69414653 6.08540291,7.00144485 5.88395436,7.30705344 L5.88395436,7.30705344 L5.88395436,7.30705344 Z M4.79868648,8.95005182 C4.78611386,8.9475124 4.77354003,8.94456417 4.76097971,8.94119864 C4.43532971,8.85394099 4.24207454,8.51921321 4.32933219,8.19356322 C4.41658984,7.86791323 4.75131762,7.67465805 5.07696762,7.76191571 C5.22339428,7.80115061 5.34305335,7.89041902 5.42247958,8.00639841 C5.2074358,8.33198653 4.99752894,8.64943318 4.79868648,8.95005182 L4.79868648,8.95005182 L4.79868648,8.95005182 Z M3.73347903,10.5617851 C3.73178251,10.5613459 3.7300862,10.560899 3.72839013,10.5604446 C3.40274014,10.4731869 3.20948497,10.1384591 3.29674262,9.81280914 C3.38400027,9.48715915 3.71872805,9.29390397 4.04437804,9.38116163 C4.17902527,9.41724024 4.29103837,9.49562617 4.36994735,9.59818484 C4.12290323,9.97168383 3.90553257,10.3005257 3.73347903,10.5617851 L3.73347903,10.5617851 L3.73347903,10.5617851 Z" id="Combined-Shape" fill="#CB792F"></path>
                    <path d="M7.42668567,0.736131056 C7.42664399,0.73611744 7.42874904,0.736850108 7.43282735,0.738363328 C7.44099717,0.74139466 7.45080657,0.745278214 7.46208214,0.750046356 C7.49573001,0.764275165 7.53326226,0.782453275 7.57330043,0.804809545 C7.68837134,0.869062137 7.79818265,0.952917544 7.89254278,1.05776952 C8.14423318,1.33744523 8.24718033,1.71667404 8.13435701,2.23252783 C8.11160966,2.33653386 8.17748284,2.43928778 8.28148887,2.46203512 C8.3854949,2.48478247 8.48824881,2.41890929 8.51099616,2.31490326 C8.65054866,1.67683758 8.51327973,1.17117681 8.17912305,0.799865449 C8.05435076,0.661219805 7.91122632,0.55192543 7.76126079,0.468188591 C7.70853621,0.43874856 7.65841903,0.41447515 7.61224364,0.394948781 C7.58314313,0.382642934 7.56076243,0.374338792 7.54642652,0.36965474 C7.44522688,0.336589215 7.33638346,0.391822828 7.30331794,0.493022469 C7.27025241,0.594222109 7.32548603,0.703065531 7.42668567,0.736131056 Z M6.1083364,11.2147448 C6.11504624,11.1972992 6.13000315,11.1611355 6.15330922,11.1089621 C6.19303172,11.0200384 6.24132773,10.9204407 6.29827798,10.8128834 C6.46134621,10.5049095 6.66017527,10.1968311 6.89490549,9.91030593 C7.2194023,9.51420654 7.58621919,9.19228872 7.99471303,8.96947389 C8.11592512,8.90335821 8.16058958,8.75149905 8.09447389,8.63028697 C8.02835821,8.50907488 7.87649905,8.46441042 7.75528697,8.53052611 C7.28549956,8.78677378 6.87088677,9.15063721 6.50812576,9.59344407 C6.2507095,9.9076611 6.03413523,10.2432351 5.8563978,10.5789135 C5.79406606,10.6966345 5.74092495,10.8062238 5.69678697,10.9050321 C5.66977675,10.9654978 5.65145766,11.0097907 5.6416636,11.0352552 C5.59209893,11.1641234 5.65638709,11.3087717 5.78525523,11.3583364 C5.91412337,11.4079011 6.05877173,11.3436129 6.1083364,11.2147448 Z" id="Combined-Shape" fill="#FFDC58"></path>
                </g>
            </g>
            <g id="color_violino" transform="translate(255.000000, 0.000000)">
                <path d="M9.80067319,10.484368 C9.82726842,10.4517751 9.85190575,10.4239905 9.8744331,10.4014632 C11.046006,9.22989029 11.7531128,8.03750213 9.8744331,6.15882248 C7.99575344,4.28014282 6.80336528,4.9872496 5.63179241,6.15882248 C5.60926506,6.18134983 5.58148044,6.20598715 5.54888757,6.23258238 C5.77082232,6.83933654 5.54271888,7.66210957 4.92468563,8.28014282 C4.14363704,9.0611914 3.03559833,9.21948265 2.44981189,8.63369621 C2.35774749,8.54163181 2.28406214,8.43666754 2.22828488,8.32210018 C1.88663484,8.55768352 1.59191995,8.78448137 1.38915172,8.9872496 C-0.172945445,10.5493468 -0.732168622,12.5227835 1.38915172,14.6441038 C3.51047207,16.7654242 5.4839088,16.206201 7.04600597,14.6441038 C7.2487742,14.4413356 7.47557205,14.1466207 7.71115539,13.8049707 C7.59658803,13.7491934 7.49162376,13.6755081 7.39955936,13.5834437 C6.81377292,12.9976572 6.97206417,11.8896185 7.75311275,11.1085699 C8.371146,10.4905367 9.19391903,10.2624333 9.80067319,10.484368 L9.80067319,10.484368 L9.80067319,10.484368 Z" id="Combined-Shape" fill="#CB792F"></path>
                <path d="M5.03359144,8.20661109 C4.4964528,8.15961755 4.0895152,8.67110993 4.0365806,9.27615522 L3.81910425,11.7619212 C3.80223671,11.9547182 3.63059814,12.0991444 3.44205841,12.0826493 L3.19067642,12.0606563 C2.97060317,12.0414024 2.77659016,12.2041986 2.75733624,12.4242719 C2.73808233,12.6443451 2.90087857,12.8383581 3.12095183,12.857612 L3.37233381,12.8796051 C4.00151361,12.9346512 4.56072769,12.4640972 4.61606002,11.8316458 L4.83353637,9.34587982 C4.85255387,9.12850875 4.95273132,9.00259263 4.96386685,9.00356687 C5.18394011,9.02282078 5.37795311,8.86002454 5.39720703,8.63995128 C5.41646095,8.41987802 5.2536647,8.22586501 5.03359144,8.20661109 Z M6.02095184,8.20661109 C6.55809048,8.15961755 6.96502808,8.67110993 7.01796268,9.27615522 L7.23543902,11.7619212 C7.25230657,11.9547182 7.42394514,12.0991444 7.61248487,12.0826493 L7.86386685,12.0606563 C8.08394011,12.0414024 8.27795312,12.2041986 8.29720704,12.4242719 C8.31646095,12.6443451 8.15366471,12.8383581 7.93359145,12.857612 L7.68220946,12.8796051 C7.05302967,12.9346512 6.49381558,12.4640972 6.43848325,11.8316458 L6.22100691,9.34587982 C6.20198941,9.12850875 6.10181196,9.00259263 6.09067643,9.00356687 C5.87060317,9.02282078 5.67659016,8.86002454 5.65733625,8.63995128 C5.63808233,8.41987802 5.80087858,8.22586501 6.02095184,8.20661109 Z" id="Combined-Shape" fill="#3F260F" transform="translate(5.527272, 10.543796) rotate(-315.000000) translate(-5.527272, -10.543796) "></path>
                <path d="M13.5,1 C13.7761424,1 14,0.776142375 14,0.5 C14,0.223857625 13.7761424,0 13.5,0 C13.2238576,0 13,0.223857625 13,0.5 C13,0.776142375 13.2238576,1 13.5,1 Z M12.5,2 C12.7761424,2 13,1.77614237 13,1.5 C13,1.22385763 12.7761424,1 12.5,1 C12.2238576,1 12,1.22385763 12,1.5 C12,1.77614237 12.2238576,2 12.5,2 Z M14.5,4 C14.7761424,4 15,3.77614237 15,3.5 C15,3.22385763 14.7761424,3 14.5,3 C14.2238576,3 14,3.22385763 14,3.5 C14,3.77614237 14.2238576,4 14.5,4 Z M15.5,3 C15.7761424,3 16,2.77614237 16,2.5 C16,2.22385763 15.7761424,2 15.5,2 C15.2238576,2 15,2.22385763 15,2.5 C15,2.77614237 15.2238576,3 15.5,3 Z M9.45961943,7.45961943 L15.4596194,1.45961943 L14.5403806,0.540380567 L8.54038057,6.54038057 L9.45961943,7.45961943 Z" id="Combined-Shape" fill="#3F260F"></path>
                <path d="M3.49859855,13.480934 C3.71848843,13.2608899 2.71918916,12.3128449 2.49929927,12.5328889 L1.66491741,13.5710058 C1.44502753,13.7910499 1.44502753,14.1478118 1.66491741,14.3678559 C1.88480729,14.5878999 2.24131923,14.5878999 2.46120912,14.3678559 L3.49859855,13.480934 Z" id="Path-17" fill="#3F260F"></path>
                <path d="M3.22925017,2.46830439 L7.21949552,13.6467808 C7.31232415,13.9068356 7.59828355,14.0423603 7.85820371,13.9494835 C8.11812387,13.8566068 8.25357832,13.5704992 8.16074969,13.3104444 L4.17050435,2.13196799 C4.07767572,1.87191314 3.79171632,1.7363885 3.53179616,1.82926523 C3.27187599,1.92214197 3.13642154,2.20824954 3.22925017,2.46830439 L3.22925017,2.46830439 Z" id="Path-237" fill="#ECC01B"></path>
                <path d="M3.52912904,1.1681682 L8.52912904,15.1681682 C8.62200578,15.428223 8.90811335,15.5637477 9.1681682,15.470871 C9.42822305,15.3779942 9.56374769,15.0918866 9.47087096,14.8318318 L4.47087096,0.831831802 C4.37799422,0.571776953 4.09188665,0.436252313 3.8318318,0.529129044 C3.57177695,0.622005776 3.43625231,0.90811335 3.52912904,1.1681682 L3.52912904,1.1681682 Z" id="Path-237" fill="#3F260F"></path>
            </g>
            <g id="gravacao" transform="translate(271.000000, 0.000000)">
                <g>
                    <rect id="Rectangle-1" fill="#185BE2" x="0" y="0" width="16" height="10" rx="1"></rect>
                    <rect id="Rectangle-2" fill="#558DFF" x="1" y="1" width="14" height="8" rx="0.5"></rect>
                    <path d="M5,3 L5,7 L4.5,7 C4.22385763,7 4,6.78494263 4,6.50952148 L4,3.49047852 C4,3.21959471 4.23193359,3 4.5,3 L5,3 Z M6,4 L7,4 L7,6 L6,6 L6,4 L6,4 L6,4 L6,4 Z M11,4 L11,6 L10.5,6 C10.2238576,6 10,5.78596497 10,5.49531555 L10,4.50468445 C10,4.22595492 10.2319336,4 10.5,4 L11,4 Z M4,4 L4,6 L3.5,6 C3.22385763,6 3,5.78596497 3,5.49531555 L3,4.50468445 C3,4.22595492 3.23193359,4 3.5,4 L4,4 Z M6,7.50899482 C6,7.78016949 5.76806641,8 5.5,8 L5.5,8 C5.22385763,8 5,7.77211952 5,7.50899482 L5,2.49100518 C5,2.21983051 5.23193359,2 5.5,2 L5.5,2 C5.77614237,2 6,2.22788048 6,2.49100518 L6,7.50899482 Z M8,3 L8,7 L7.5,7 C7.22385763,7 7,6.78494263 7,6.50952148 L7,3.49047852 C7,3.21959471 7.23193359,3 7.5,3 L8,3 Z M9,7.50899482 C9,7.78016949 8.76806641,8 8.5,8 L8.5,8 C8.22385763,8 8,7.77211952 8,7.50899482 L8,2.49100518 C8,2.21983051 8.23193359,2 8.5,2 L8.5,2 C8.77614237,2 9,2.22788048 9,2.49100518 L9,7.50899482 Z M12,3 L12,7 L12.5,7 C12.7761424,7 13,6.78494263 13,6.50952148 L13,3.49047852 C13,3.21959471 12.7680664,3 12.5,3 L12,3 Z M12,7.50899482 C12,7.78016949 11.7680664,8 11.5,8 L11.5,8 C11.2238576,8 11,7.77211952 11,7.50899482 L11,2.49100518 C11,2.21983051 11.2319336,2 11.5,2 L11.5,2 C11.7761424,2 12,2.22788048 12,2.49100518 L12,7.50899482 Z" id="Combined-Shape" fill="#FFFFFF"></path>
                    <rect id="Rectangle-4" fill="#424242" x="0" y="10" width="16" height="6" rx="1"></rect>
                    <g id="Rectangle-5">
                        <use fill="#D8D8D8" xlink:href="#path-1"></use>
                        <use fill="#FFFFFF" xlink:href="#path-1"></use>
                    </g>
                    <rect id="Rectangle-6" fill="#424242" x="2" y="12" width="1" height="2"></rect>
                    <rect id="Rectangle-6" fill="#424242" x="4" y="12" width="1" height="2"></rect>
                    <rect id="Rectangle-6" fill="#424242" x="8" y="12" width="1" height="2"></rect>
                    <rect id="Rectangle-6" fill="#424242" x="10" y="12" width="1" height="2"></rect>
                    <rect id="Rectangle-6" fill="#424242" x="12" y="12" width="1" height="2"></rect>
                    <rect id="Rectangle-16" fill="#E0E0E0" x="2" y="14" width="1" height="1"></rect>
                    <rect id="Rectangle-16" fill="#E0E0E0" x="4" y="14" width="1" height="1"></rect>
                    <rect id="Rectangle-16" fill="#E0E0E0" x="8" y="14" width="1" height="1"></rect>
                    <rect id="Rectangle-16" fill="#E0E0E0" x="10" y="14" width="1" height="1"></rect>
                    <rect id="Rectangle-16" fill="#E0E0E0" x="12" y="14" width="1" height="1"></rect>
                    <rect id="Rectangle-16" fill="#E0E0E0" x="6" y="12" width="1" height="3"></rect>
                    <rect id="Rectangle-16" fill="#E0E0E0" x="14" y="12" width="1" height="3"></rect>
                    <circle id="Oval-1" fill="#61B406" cx="13.5" cy="10.5" r="0.5"></circle>
                    <circle id="Oval-1" fill="#FF4840" cx="11.5" cy="10.5" r="0.5"></circle>
                    <circle id="Oval-1" fill="#558DFF" cx="2.5" cy="10.5" r="0.5"></circle>
                </g>
            </g>
            <g id="color_violao_canhoto" transform="translate(287.000000, 0.000000)">
                <g transform="translate(8.000000, 8.000000) scale(-1, 1) translate(-8.000000, -8.000000) " id="Combined-Shape">
                    <path d="M7.29957628,15.2750573 C4.68416058,18.2787896 -2.41881245,11.1547369 0.838552605,8.36910308 C2.59630436,6.86590873 4.46420763,7.2046317 5.31697793,6.36425064 C6.37804033,5.31860359 6.42198443,1.97607734 10.3090277,5.75528745 C8.5871582,8.8125 11.7026367,8.69177246 11.9698788,8.15249244 C12.2841226,9.73401692 10.0499148,10.0958003 9.43716358,10.9717795 C8.50854505,12.2993176 9.09018267,13.2185955 7.29957628,15.2750573 Z" fill="#E4B242"></path>
                    <path d="M14.0155956,2.9999627 L14.9728394,2.78320312 L16,1.0255127 L14.9728394,1.11022302e-16 L13.2423706,1.0255127 L13.0216858,1.99389134 L8.4941963,6.52420664 L9.51500928,7.51541758 L14.0155956,2.9999627 L14.0155956,2.9999627 Z M3,10.7876949 L5.21230508,13 L6,12.2123051 L3.78769492,10 L3,10.7876949 L3,10.7876949 Z M7.5,10 C8.32842712,10 9,9.32842712 9,8.5 C9,7.67157288 8.32842712,7 7.5,7 C6.67157288,7 6,7.67157288 6,8.5 C6,9.32842712 6.67157288,10 7.5,10 L7.5,10 Z" fill="#3F260F"></path>
                </g>
            </g>
            <g id="color_percussao" transform="translate(305.000000, 0.000000)">
                <g>
                    <path d="M1.00426957,4.00662923 L1.00426957,2 L11,2 L10.9954992,4.00662913 C10.992527,10.0000002 9.07133966,15.0592613 9.07133966,15.0592613 C8.89386866,15.5788169 8.29991192,16 7.74121523,16 L4.25878477,16 C3.70164833,16 3.1023875,15.5840069 2.92768762,15.0604088 C2.92768762,15.0604088 1,10.0088445 1.00426957,4.00662923 Z" id="corpo" fill="#CB792F"></path>
                    <path d="M10,3.00062466 C9,3.00062466 8.59742777,4.00004934 8,4 C6.82285233,3.99990278 7.13832963,3.00087125 6,3.00062466 C4.86167037,3.00037807 5.2,4 4,4 C2.8,4 3.2,3.00062466 2,3.00062466 C0.8,3.00062466 1,4 1,4 C1,4 0,4.00062466 0,3 L0,1.00947827 C0,0.451958816 0.455760956,0 1.00247329,0 L10.9975267,0 C11.5511774,0 12,0.450136876 12,1.00855417 C12,1.00855417 12,2.00031233 12,2.99102783 C12,4.00062466 11,4.00062476 11,4.00062476 C11,4.00062476 11,3.00062466 10,3.00062466 Z" id="tampa" fill="#FFCA00"></path>
                    <path d="M1.5,2.5 C1.77614237,2.5 2,2.27614237 2,2 C2,1.72385763 1.77614237,1.5 1.5,1.5 C1.22385763,1.5 1,1.72385763 1,2 C1,2.27614237 1.22385763,2.5 1.5,2.5 Z M4.5,2.5 C4.77614237,2.5 5,2.27614237 5,2 C5,1.72385763 4.77614237,1.5 4.5,1.5 C4.22385763,1.5 4,1.72385763 4,2 C4,2.27614237 4.22385763,2.5 4.5,2.5 Z M7.5,2.5 C7.77614237,2.5 8,2.27614237 8,2 C8,1.72385763 7.77614237,1.5 7.5,1.5 C7.22385763,1.5 7,1.72385763 7,2 C7,2.27614237 7.22385763,2.5 7.5,2.5 Z M10.5,2.5 C10.7761424,2.5 11,2.27614237 11,2 C11,1.72385763 10.7761424,1.5 10.5,1.5 C10.2238576,1.5 10,1.72385763 10,2 C10,2.27614237 10.2238576,2.5 10.5,2.5 Z" id="afinadores" fill="#DFA72A"></path>
                    <path d="M10.2764027,10.6847127 L10,10.407119 L8,12.4142136 L6,10.407119 L4,12.4142136 L2,10.407119 L1.72093332,10.6873882 C1.64289142,10.3106233 1.56715611,9.91536936 1.49597577,9.50402423 L2,9 L4,11.0210644 L6,9 L8,11.0070946 L10,9 L10.5013164,9.50131635 C10.4301179,9.91263543 10.3544003,10.3079028 10.2764027,10.6847127 L10.2764027,10.6847127 Z" id="desenho" fill="#FF9900"></path>
                    <path d="M10.712839,8.11946704 L10.0035473,7.40711899 L8.00354729,9.41421356 L6.00354729,7.40711899 L4.00354729,9.41421356 L2.00354729,7.40711899 L1.28548749,8.12827293 C1.23090988,7.7171844 1.18232807,7.29445841 1.14153755,6.86200974 L2.00354729,6 L4.00354729,8.02106438 L6.00354729,6 L8.00354729,8.00709457 L10.0035473,6 L10.8569872,6.85343996 C10.8160944,7.28575279 10.7674491,7.70840208 10.712839,8.11946704 L10.712839,8.11946704 Z" id="Path" fill="#ECC01B"></path>
                </g>
            </g>
            <g id="color_piano" transform="translate(319.000000, 1.000000)">
                <g>
                    <path d="M6.99999996,1.5 C4.99999996,1.5 3.99999996,-1.00000004 1.99694822,0.999999995 C-0.973658918,3.96608134 -2.82827833e-09,6.997378 1.99694824,8.99694824 C3.99389649,10.9965185 6.29338038,13.293878 6.29338038,13.293878 C6.68363562,13.6838584 7.32031476,13.6796852 7.7062149,13.2937851 L15.2937851,5.7062149 C15.6838168,5.31618318 15.6872276,4.68722761 15.2942268,4.29422684 L11.7057731,0.705773161 C11.3159854,0.315985408 10.6354684,0.247694493 10.1589802,0.533067406 C10.1589802,0.533067406 8.99999996,1.5 6.99999996,1.5 Z" id="Teclado" fill="#424242"></path>
                    <g id="Teclas" transform="translate(5.000000, 3.000000)" fill="#FFFFFF">
                        <polygon id="Path-18" points="0 7 2 9 3 8 1 6"></polygon>
                        <polygon id="Path-18" points="2 5 4 7 5 6 3 4"></polygon>
                        <polygon id="Path-18" points="4 3 6 5 7 4 5 2"></polygon>
                        <polygon id="Path-18" points="7.30957031 2.29553223 2.00341797 7.58837891 2.00341797 8.987854 9 2 7 0 6 1"></polygon>
                    </g>
                </g>
            </g>
            <g id="color_harpa" transform="translate(335.000000, 0.000000)">
                <g>
                    <path d="M4,1 L5,1 L5,14 L4,14 L4,1 Z M8,0 L9,0 L9,14 L8,14 L8,0 Z M6,0 L7,0 L7,14 L6,14 L6,0 Z M10,1 L11,1 L11,14 L10,14 L10,1 Z" id="cordas" fill="#FFCA00"></path>
                    <rect id="cavalete" fill="#E4B242" x="3" y="3" width="9" height="2"></rect>
                    <path d="M4,2 C4,0.8954305 3.1045695,0 2,0 C0.8954305,0 0,0.8954305 0,2 C0,3.05932909 0.823583406,3.92629997 1.86537843,3.99554085 C1.72710797,4.86032587 1.47906735,5.55473972 1.10632211,6.29712313 C1.04451541,6.42022133 0.793440512,6.90372099 0.731788082,7.02651194 C0.226160112,8.03355317 4.53042048e-10,8.83136767 0,9.96665764 C-1.38496148e-09,13.4373089 3,16 7.5,16 C12,16 15,13.4373089 15,9.96665764 C15,8.83136769 14.7738399,8.03355318 14.2682121,7.026512 C14.2065596,6.90372102 13.9554846,6.42022115 13.8936779,6.29712287 C13.5209328,5.55473956 13.2728922,4.86032575 13.1346217,3.99554084 C14.1764167,3.92629988 15,3.05932904 15,2 C15,0.8954305 14.1045695,0 13,0 C11.8954364,0 11.0000096,0.895420938 11,1.99998231 C11.0000002,4.28599331 11.351586,5.69135966 12.1063221,7.19454089 C12.1762878,7.33388922 12.4273628,7.8173891 12.4808562,7.92393003 C12.8570344,8.67315087 13,9.17748398 13,9.96665764 C13,12.1293307 11,14 7.5,14 C4,14 2,12.1293307 2,9.96665764 C2,9.17748402 2.1429656,8.67315094 2.51914386,7.92393008 C2.57263727,7.81738917 2.82371217,7.33388952 2.89367789,7.19454128 C3.64841418,5.69135987 4,4.28599348 4,2 Z" id="arco" fill="#CB792F"></path>
                </g>
            </g>
            <g id="color_pickup_dj" transform="translate(351.000000, 1.000000)">
                <g>
                    <rect id="corpo" fill="#424242" x="0" y="0" width="16" height="14" rx="1"></rect>
                    <path d="M14,4.91464715 C14.5825962,4.70872894 15,4.15310941 15,3.5 C15,2.67157288 14.3284271,2 13.5,2 C12.6715729,2 12,2.67157288 12,3.5 C12,4.15310941 12.4174038,4.70872894 13,4.91464715 L13,8.2306428 C13,8.5119709 12.8465341,8.90257219 12.6529442,9.10760822 L11.547068,10.2788708 C11.3553944,10.4818773 11.364014,10.8104484 11.5535656,11 C11.7488277,11.1952621 12.0576338,11.198676 12.2527157,10.9979399 L13.6544033,9.55562573 C13.8452711,9.35922581 14,8.97935049 14,8.69263919 L14,4.91464715 Z M13.5,4 C13.7761424,4 14,3.77614237 14,3.5 C14,3.22385763 13.7761424,3 13.5,3 C13.2238576,3 13,3.22385763 13,3.5 C13,3.77614237 13.2238576,4 13.5,4 Z" id="agulha" fill="#E0E0E0"></path>
                    <g id="luzes" transform="translate(1.000000, 1.000000)">
                        <circle id="Oval-6" fill="#61B406" cx="0.5" cy="11.5" r="0.5"></circle>
                        <circle id="Oval-6" fill="#FFCA00" cx="0.5" cy="0.5" r="0.5"></circle>
                        <circle id="Oval-6" fill="#FF4840" cx="2.5" cy="0.5" r="0.5"></circle>
                        <circle id="Oval-6" fill="#9E9E9E" cx="13" cy="11" r="1"></circle>
                    </g>
                    <g id="disco" transform="translate(1.000000, 2.000000)">
                        <circle id="Oval-3" fill="#9E9E9E" cx="5" cy="5" r="5"></circle>
                        <circle id="Oval-3" fill="#212121" cx="5" cy="5" r="4"></circle>
                        <circle id="Oval-4" fill="#757575" cx="5" cy="5" r="1"></circle>
                    </g>
                </g>
            </g>
            <g id="color_sanfona" transform="translate(367.000000, 2.000000)">
                <g>
                    <path d="M0,1.00247329 C0,0.448822582 0.437881351,0 1.00292933,0 L7,0 L7,12 L1.00292933,12 C0.449026756,12 0,11.544239 0,10.9975267 L0,1.00247329 Z M12,0 L14.9906311,0 C15.5480902,0 16,0.455760956 16,1.00247329 L16,10.9975267 C16,11.5511774 15.5566468,12 14.9906311,12 L12,12 L12,0 Z M8,11 L8,1 L8.5,0 L9,0.998291016 L9,11 L8.5,12 L8,11 Z M10,11 L10,1 L10.5,0 L11,0.998291016 L11,11 L10.5,12 L10,11 Z" id="corpo" fill="#424242"></path>
                    <rect id="marca" fill="#FFFFFF" x="5" y="4" width="1" height="4" rx="0.5"></rect>
                    <path d="M14.5,2 C14.7761424,2 15,1.77614237 15,1.5 C15,1.22385763 14.7761424,1 14.5,1 C14.2238576,1 14,1.22385763 14,1.5 C14,1.77614237 14.2238576,2 14.5,2 Z M13.5,3 C13.7761424,3 14,2.77614237 14,2.5 C14,2.22385763 13.7761424,2 13.5,2 C13.2238576,2 13,2.22385763 13,2.5 C13,2.77614237 13.2238576,3 13.5,3 Z M14.5,4 C14.7761424,4 15,3.77614237 15,3.5 C15,3.22385763 14.7761424,3 14.5,3 C14.2238576,3 14,3.22385763 14,3.5 C14,3.77614237 14.2238576,4 14.5,4 Z M13.5,5 C13.7761424,5 14,4.77614237 14,4.5 C14,4.22385763 13.7761424,4 13.5,4 C13.2238576,4 13,4.22385763 13,4.5 C13,4.77614237 13.2238576,5 13.5,5 Z M14.5,6 C14.7761424,6 15,5.77614237 15,5.5 C15,5.22385763 14.7761424,5 14.5,5 C14.2238576,5 14,5.22385763 14,5.5 C14,5.77614237 14.2238576,6 14.5,6 Z M13.5,7 C13.7761424,7 14,6.77614237 14,6.5 C14,6.22385763 13.7761424,6 13.5,6 C13.2238576,6 13,6.22385763 13,6.5 C13,6.77614237 13.2238576,7 13.5,7 Z M14.5,8 C14.7761424,8 15,7.77614237 15,7.5 C15,7.22385763 14.7761424,7 14.5,7 C14.2238576,7 14,7.22385763 14,7.5 C14,7.77614237 14.2238576,8 14.5,8 Z M13.5,9 C13.7761424,9 14,8.77614237 14,8.5 C14,8.22385763 13.7761424,8 13.5,8 C13.2238576,8 13,8.22385763 13,8.5 C13,8.77614237 13.2238576,9 13.5,9 Z M14.5,10 C14.7761424,10 15,9.77614237 15,9.5 C15,9.22385763 14.7761424,9 14.5,9 C14.2238576,9 14,9.22385763 14,9.5 C14,9.77614237 14.2238576,10 14.5,10 Z M13.5,11 C13.7761424,11 14,10.7761424 14,10.5 C14,10.2238576 13.7761424,10 13.5,10 C13.2238576,10 13,10.2238576 13,10.5 C13,10.7761424 13.2238576,11 13.5,11 Z" id="baixo" fill="#FFFFFF"></path>
                    <path d="M1,1 L4,1 L4,11 L1,11 L1,1 Z M2,2 L4,2 L4,3 L2,3 L2,2 Z M2,4 L4,4 L4,5 L2,5 L2,4 Z M2,7 L4,7 L4,8 L2,8 L2,7 Z M2,9 L4,9 L4,10 L2,10 L2,9 Z" id="teclado" fill="#FFFFFF"></path>
                    <path d="M7,11 L7,1 L7.5,0 L8,0.998291016 L8,11 L7.5,12 L7,11 Z M9,11 L9,1 L9.5,0 L10,0.998291016 L10,11 L9.5,12 L9,11 Z M11,11 L11,1 L11.5,0 L12,0.998291016 L12,11 L11.5,12 L11,11 Z" id="sanfona" fill="#757575"></path>
                </g>
            </g>
            <g id="color_triangulo" transform="translate(383.000000, 1.000000)">
                <g>
                    <path d="M8.32702768,2.91087258 C8.17627708,2.67397878 7.95094395,2.67938946 7.82155571,2.9195377 L2.49684463,12.8023521 C2.37312162,13.0319855 2.48798528,13.2374481 2.76605345,13.2377802 L13,13.25 C13.4142136,13.25 13.75,13.5857864 13.75,14 C13.75,14.4142136 13.4142136,14.75 13,14.75 L1,14.75 C0.432493575,14.75 0.0705919794,14.1440981 0.339646675,13.6444251 L7.33964668,0.644425133 C7.61124327,0.140031452 8.32518735,0.114036748 8.63274612,0.597343381 L10.9513467,4.24085866 C11.0987859,4.47254876 11.0579872,4.8206925 10.8625372,5.01614248 L10.1317752,5.74690443 L8.32702768,2.91087258 Z M14.3672539,12.4026566 C14.589635,12.7521126 15.0532006,12.8551272 15.4026566,12.6327461 C15.7521126,12.410365 15.8551272,11.9467994 15.6327461,11.5973434 L12.8682248,7.25309557 L12.1374628,7.98385752 C11.9409755,8.18034485 11.9063981,8.53559755 12.0486533,8.75914134 L14.3672539,12.4026566 Z" id="triangulo" fill="#9E9E9E"></path>
                    <path d="M15.5303301,3.53033009 C15.8232233,3.23743687 15.8232233,2.76256313 15.5303301,2.46966991 C15.2374369,2.1767767 14.7625631,2.1767767 14.4696699,2.46966991 L7.46966991,9.46966991 C7.1767767,9.76256313 7.1767767,10.2374369 7.46966991,10.5303301 C7.76256313,10.8232233 8.23743687,10.8232233 8.53033009,10.5303301 L15.5303301,3.53033009 Z" id="baqueta" fill="#424242"></path>
                </g>
            </g>
            <g id="color_trompete" transform="translate(399.000000, 0.000000)">
                <g>
                    <path d="M6.16238828,10.9935005 L8.9935005,8.16238828 C9.38543817,7.77045061 10.012554,7.76991335 10.4063715,8.16373083 C10.7994065,8.55676579 10.8005588,9.18375715 10.4077141,9.57660184 L7.57660184,12.4077141 C7.18466417,12.7996517 6.55754831,12.800189 6.16373083,12.4063715 C5.77069586,12.0133365 5.76954359,11.3863452 6.16238828,10.9935005 L6.16238828,10.9935005 Z M8.99081541,13.8219276 L11.8219276,10.9908154 C12.9969869,9.81575615 12.9935074,7.92243957 11.8205851,6.74951726 C11.3479066,6.27683881 10.7591101,5.99450538 10.1477797,5.9021132 L3.86956088,11.6131448 C3.86956088,11.6131448 4.14072391,13.2117917 4.74951726,13.8205851 C5.92492628,14.9959941 7.81837107,14.994372 8.99081541,13.8219276 L8.99081541,13.8219276 Z" id="cone" fill="#FFCA00"></path>
                    <path d="M9,6.47628253 C9.52916121,6.09777186 9.94690447,5.87175432 10.1477797,5.9021132 C10.7591101,5.99450538 11.3479066,6.27683881 11.8205851,6.74951726 C12.9935074,7.92243957 12.9969869,9.81575615 11.8219276,10.9908154 L9,13.812743 L9,10.9843159 L10.4077141,9.57660184 C10.8005588,9.18375715 10.7994065,8.55676579 10.4063715,8.16373083 C10.0147238,7.77208309 9.3923413,7.77045666 9,8.15594576 L9,6.47628253 Z M4,9 C4,8.44771525 3.55228475,8 3,8 C2.44771525,8 2,8.44771525 2,9 C2,9.55228475 2.44771525,10 3,10 C3.55228475,10 4,9.55228475 4,9 Z M6,7 C6,6.44771525 5.55228475,6 5,6 C4.44771525,6 4,6.44771525 4,7 C4,7.55228475 4.44771525,8 5,8 C5.55228475,8 6,7.55228475 6,7 Z M8,5 C8,4.44771525 7.55228475,4 7,4 C6.44771525,4 6,4.44771525 6,5 C6,5.55228475 6.44771525,6 7,6 C7.55228475,6 8,5.55228475 8,5 Z" id="Combined-Shape" fill="#ECC01B"></path>
                    <path d="M1.19085259,15.8545719 C1.19085259,15.8545719 10.4322723,7.02152853 12.1262832,5.41549633 C14.1813944,3.89813218 15.7468972,3.93783403 15.7468972,3.93783403 C16.0173003,3.9159073 16.0815165,3.74109232 15.8885792,3.54560185 L12.5036382,0.115867048 C12.3114839,-0.0788300801 12.1102008,-0.0256680359 12.0442221,0.256574636 C12.0442221,0.256574636 11.584247,2.62019897 10.5849499,3.87399825 C10.1122725,4.46705764 0.139488487,14.8211587 0.139488487,14.8211587 C-0.0504268193,15.0184121 -0.0438280364,15.3388902 0.143499847,15.5262381 L0.475288535,15.8580623 C0.667419255,16.0502135 0.990763674,16.0458037 1.19085259,15.8545719 Z" id="Combined-Shape" fill="#FFCA00"></path>
                </g>
            </g>
            <g id="color_zabumba" transform="translate(416.000000, 0.000000)">
                <g>
                    <g id="cores" transform="translate(1.000000, 9.000000)">
                        <polygon id="cor_1" fill="#CB792F" points="0 0 3 6 0 6"></polygon>
                        <polygon id="cor_1-copy" fill="#CB792F" points="12 0 12 6 9 6"></polygon>
                        <polygon id="cor_1-copy-3" fill="#FF9900" points="0 0 6 0 3 6"></polygon>
                        <polygon id="cor_1-copy-4" fill="#FF9900" points="6 0 12 0 9 6"></polygon>
                        <polygon id="cor_1-copy-2" fill="#FFCA00" points="6 0 9 6 3 6"></polygon>
                    </g>
                    <path d="M2,15 C2,14.4477153 1.55228475,14 1,14 C0.44771525,14 0,14.4477153 0,15 C0,15.5522847 0.44771525,16 1,16 L13,16 C13.5522847,16 14,15.5522847 14,15 C14,14.4477153 13.5522847,14 13,14 C12.4477153,14 12,14.4477153 12,15 L8,15 C8,14.4477153 7.55228475,14 7,14 C6.44771525,14 6,14.4477153 6,15 L2,15 Z M13,8 L1,8 C0.44771525,8 0,8.44771525 0,9 C0,9.55228475 0.44771525,10 1,10 C1.55228475,10 2,9.55228475 2,9 L6,9 C6,9.55228475 6.44771525,10 7,10 C7.55228475,10 8,9.55228475 8,9 L12,9 C12,9.55228475 12.4477153,10 13,10 C13.5522847,10 14,9.55228475 14,9 C14,8.44771525 13.5522847,8 13,8 Z" id="metais" fill="#424242"></path>
                    <g id="baqueta" transform="translate(6.000000, 0.000000)">
                        <path d="M6.76384191,1.28033009 C7.07871936,0.987436867 7.07871936,0.512563133 6.76384191,0.219669914 C6.44896446,-0.0732233047 5.93844724,-0.0732233047 5.62356979,0.219669914 C5.62356979,0.219669914 0.5,5.5 1.01211739,6 C1.52423478,6.5 6.76384191,1.28033009 6.76384191,1.28033009 Z" id="cabo" fill="#ECC01B"></path>
                        <circle id="cabeca" fill="#CB792F" cx="2" cy="5" r="2"></circle>
                    </g>
                </g>
            </g>
            <g id="color_pandeiro" transform="translate(431.000000, 0.000000)">
                <g id="pandeiro">
                    <path d="M13,1 C12.6785139,1.50281107 14.6999998,2.4000001 14.6999998,2.4000001 C14.7760699,1.94832763 15.0558307,0.983592686 14.5682722,0.497188929 C14.1526769,0.0825778731 13.3214861,0.497188929 13,1 Z" id="Combined-Shape-Copy-path" fill="#3F260F" transform="translate(13.907128, 1.363799) rotate(15.000000) translate(-13.907128, -1.363799) "></path>
                    <path d="M2.5,14.5 C1.89261369,14.8012704 0.826275161,14.9812906 0.43802992,14.5939649 C0.0224345595,14.1793538 0.43802992,13.3501317 0.600000024,13 L2.5,14.5 Z" id="Combined-Shape-Copy-path" fill="#3F260F"></path>
                    <path d="M13.9058908,1.49718893 L13,0.600000024 L0.5,13 C0.5,13 1.16530439,13.663441 1.43802992,13.9355206 C2.8151918,15.3094208 7.06822906,13.2939889 10.3881729,9.98190806 C13.7081167,6.66982726 15.2830527,2.87108911 13.9058908,1.49718893 Z" id="Combined-Shape-Copy-path-Copy-2" fill="#CB792F"></path>
                    <path d="M1.47701833,13.9720483 C1.47701833,13.9720483 4.67255011,14.5468078 9.58080629,9.61779497 C14.4890625,4.68878214 13.9448792,1.53371657 13.9448792,1.53371657 C13.9448792,1.53371657 14.9672991,2.55371495 15.3990115,2.98440491 C15.7982318,3.38267971 16.2674921,3.73611711 15.8141555,5.47162091 C15.3608189,7.20712471 13.7091576,9.69798051 11.6581382,11.6902069 C9.7328984,13.6648223 6.82146669,15.4905507 5.42427143,15.8368973 C3.91557326,16.2578513 3.27984086,15.7706009 2.93485294,15.4264301 C2.44890807,14.9416362 1.47701833,13.9720483 1.47701833,13.9720483 Z" id="Combined-Shape-Copy-path-Copy" fill="#DFA72A"></path>
                    <path d="M9.38817289,8.98190806 C12.7081167,5.66982726 14.2830527,1.87108911 12.9058908,0.497188929 C11.5287289,-0.876711251 7.72097237,0.694494577 4.40102854,4.00657537 C1.08108473,7.31865617 -0.93913196,11.5616205 0.43802992,12.9355206 C1.8151918,14.3094208 6.06822906,12.2939889 9.38817289,8.98190806 L9.38817289,8.98190806 L9.38817289,8.98190806 Z" id="Combined-Shape-Copy-path" fill="#DFA72A"></path>
                    <path d="M8.74993714,8.374799 C11.8485514,5.2835236 13.4766497,1.8958182 12.3863966,0.808147223 C11.2961434,-0.279523755 7.90039546,1.34471856 4.80178123,4.43599397 C1.70316698,7.52726937 -0.340526714,11.3295858 0.749726443,12.4172568 C1.8399796,13.5049278 5.65132291,11.4660744 8.74993714,8.374799 L8.74993714,8.374799 L8.74993714,8.374799 Z" id="Combined-Shape-Copy-path" fill="#FFDC54"></path>
                    <path d="M14.6035122,2.94785143 C14.6035122,2.94785143 14.6572125,3.59753091 14.4310869,4.41597189 C14.2049612,5.23441283 13.7796812,5.92963149 13.7796812,5.92963149 C13.7796812,5.92963149 15.1642696,6.02966629 15.5788198,4.39372709 C15.8399942,3.15583857 14.6035122,2.94785143 14.6035122,2.94785143 Z M12.9058908,7.13096583 C12.9058908,7.13096583 12.5825536,7.71557134 12.0575306,8.39758937 C11.5325075,9.07960737 10.9200815,9.71058149 10.9200815,9.71058149 C10.9200815,9.71058149 12.2425338,10.0988965 12.9985693,9.0846158 C13.7546048,8.07033509 12.9058908,7.13096583 12.9058908,7.13096583 Z M7.29535337,12.7282151 C7.29535337,12.7282151 7.88134677,12.4056437 8.56498394,11.8818642 C9.24862109,11.3580846 9.88109314,10.7471091 9.88109314,10.7471091 C9.88109314,10.7471091 10.2703301,12.0664292 9.2536414,12.8206741 C8.23695271,13.574919 7.29535337,12.7282151 7.29535337,12.7282151 Z M2.8945104,14.6291214 C2.8945104,14.6291214 3.54573226,14.6826945 4.36611623,14.4571044 C5.1865002,14.2315143 5.88336934,13.8072416 5.88336934,13.8072416 C5.88336934,13.8072416 5.9836416,15.1885507 4.34381863,15.6021191 C3.10299131,15.8626748 2.8945104,14.6291214 2.8945104,14.6291214 Z" id="Combined-Shape" fill="#3F260F"></path>
                </g>
            </g>
            <g id="color_pedal" transform="translate(449.000000, 0.000000)">
                <g>
                    <rect id="caixa" fill="#FF7700" x="1" y="0" width="11" height="16" rx="1"></rect>
                    <polygon id="luz" fill="#FF9900" points="2 4 11 7 2 7"></polygon>
                    <rect id="borracha" fill="#212121" x="2" y="10" width="9" height="5" rx="0.5"></rect>
                    <path d="M2,8.5 C2,8.22385763 2.21484375,8 2.49769878,8 L6.50230122,8 C6.77717266,8 7,8.23193359 7,8.5 C7,8.77614237 6.78515625,9 6.50230122,9 L2.49769878,9 C2.22282734,9 2,8.76806641 2,8.5 Z M10.5,9 C10.7761424,9 11,8.77614237 11,8.5 C11,8.22385763 10.7761424,8 10.5,8 C10.2238576,8 10,8.22385763 10,8.5 C10,8.77614237 10.2238576,9 10.5,9 Z M8.5,9 C8.77614237,9 9,8.77614237 9,8.5 C9,8.22385763 8.77614237,8 8.5,8 C8.22385763,8 8,8.22385763 8,8.5 C8,8.77614237 8.22385763,9 8.5,9 Z" id="descricao" fill="#424242"></path>
                    <rect id="marca" fill="#424242" x="3" y="11" width="7" height="1" rx="0.5"></rect>
                    <circle id="ligado" fill="#D0011B" cx="6.5" cy="1.5" r="0.5"></circle>
                    <path d="M3.5,4 C4.32842712,4 5,3.32842712 5,2.5 C5,1.67157288 4.32842712,1 3.5,1 C2.67157288,1 2,1.67157288 2,2.5 C2,3.32842712 2.67157288,4 3.5,4 Z M6.5,6 C7.32842712,6 8,5.32842712 8,4.5 C8,3.67157288 7.32842712,3 6.5,3 C5.67157288,3 5,3.67157288 5,4.5 C5,5.32842712 5.67157288,6 6.5,6 Z M9.5,4 C10.3284271,4 11,3.32842712 11,2.5 C11,1.67157288 10.3284271,1 9.5,1 C8.67157288,1 8,1.67157288 8,2.5 C8,3.32842712 8.67157288,4 9.5,4 Z" id="controles" fill="#212121"></path>
                    <path d="M3.5,3 C3.77614237,3 4,2.77614237 4,2.5 C4,2.22385763 3.77614237,2 3.5,2 C3.22385763,2 3,2.22385763 3,2.5 C3,2.77614237 3.22385763,3 3.5,3 Z M6.5,5 C6.77614237,5 7,4.77614237 7,4.5 C7,4.22385763 6.77614237,4 6.5,4 C6.22385763,4 6,4.22385763 6,4.5 C6,4.77614237 6.22385763,5 6.5,5 Z M9.5,3 C9.77614237,3 10,2.77614237 10,2.5 C10,2.22385763 9.77614237,2 9.5,2 C9.22385763,2 9,2.22385763 9,2.5 C9,2.77614237 9.22385763,3 9.5,3 Z" id="controles_brancos_circulares" fill="#FFFFFF"></path>
                    <g id="jack" transform="translate(0.000000, 5.000000)">
                        <rect id="Rectangle-7" fill="#424242" x="0" y="2" width="1" height="1"></rect>
                        <rect id="Rectangle-7-Copy" fill="#757575" x="0" y="1" width="1" height="1"></rect>
                        <rect id="Rectangle-7-Copy-2" fill="#9E9E9E" x="0" y="0" width="1" height="1"></rect>
                        <rect id="Rectangle-7-Copy-5" fill="#424242" x="12" y="2" width="1" height="1"></rect>
                        <rect id="Rectangle-7-Copy-4" fill="#757575" x="12" y="1" width="1" height="1"></rect>
                        <rect id="Rectangle-7-Copy-3" fill="#9E9E9E" x="12" y="0" width="1" height="1"></rect>
                    </g>
                </g>
            </g>
            <g id="color_flauta" transform="translate(465.000000, 0.000000)">
                <g>
                    <path d="M0,0.499076843 C0,0.223444314 0.214035034,0 0.504684448,0 L1.49531555,0 C1.77404508,0 2,0.223682597 2,0.499076843 L2,14.5009232 C2,14.7765557 1.78596497,15 1.49531555,15 L0.504684448,15 C0.225954924,15 0,14.7763174 0,14.5009232 L0,0.499076843 Z M2,0.493741035 C2,0.221055391 2.21403503,0 2.50468445,0 L3.49531555,0 C3.77404508,0 4,0.225639343 4,0.493741035 L4,12.506259 C4,12.7789446 3.78596497,13 3.49531555,13 L2.50468445,13 C2.22595492,13 2,12.7743607 2,12.506259 L2,0.493741035 Z M4,0.501230836 C4,0.224408689 4.21403503,0 4.50468445,0 L5.49531555,0 C5.77404508,0 6,0.229750633 6,0.501230836 L6,10.4987692 C6,10.7755913 5.78596497,11 5.49531555,11 L4.50468445,11 C4.22595492,11 4,10.7702494 4,10.4987692 L4,0.501230836 Z M6,0.509665847 C6,0.228185172 6.21403503,0 6.50468445,0 L7.49531555,0 C7.77404508,0 8,0.222473145 8,0.509665847 L8,8.49033415 C8,8.77181483 7.78596497,9 7.49531555,9 L6.50468445,9 C6.22595492,9 6,8.77752686 6,8.49033415 L6,0.509665847 Z M8,0.503422737 C8,0.225390037 8.21403503,0 8.50468445,0 L9.49531555,0 C9.77404508,0 10,0.232902527 10,0.503422737 L10,6.49657726 C10,6.77460996 9.78596497,7 9.49531555,7 L8.50468445,7 C8.22595492,7 8,6.76709747 8,6.49657726 L8,0.503422737 Z M10,0.497698784 C10,0.222827336 10.214035,0 10.5046844,0 L11.4953156,0 C11.7740451,0 12,0.21484375 12,0.497698784 L12,4.50230122 C12,4.77717266 11.785965,5 11.4953156,5 L10.5046844,5 C10.2259549,5 10,4.78515625 10,4.50230122 L10,0.497698784 Z" id="Combined-Shape" fill="#E4B242"></path>
                    <path d="M2,0.493741035 C2,0.221055391 2.23193359,0 2.5,0 L3,0 L3,13 L2.5,13 C2.22385763,13 2,12.7743607 2,12.506259 L2,0.493741035 Z M4,0.501230836 C4,0.224408689 4.23193359,0 4.5,0 L5,0 L5,11 L4.5,11 C4.22385763,11 4,10.7702494 4,10.4987692 L4,0.501230836 Z M6,0.509665847 C6,0.228185172 6.23193359,0 6.5,0 L7,0 L7,9 L6.5,9 C6.22385763,9 6,8.77752686 6,8.49033415 L6,0.509665847 Z M8,0.503422737 C8,0.225390037 8.23193359,0 8.5,0 L9,0 L9,7 L8.5,7 C8.22385763,7 8,6.76709747 8,6.49657726 L8,0.503422737 Z M0,0.499076843 C0,0.223444314 0.231933594,0 0.5,0 L1,0 L1,15 L0.5,15 C0.223857625,15 0,14.7763174 0,14.5009232 L0,0.499076843 Z M10,0.497698784 C10,0.222827336 10.2319336,0 10.5,0 L11,0 L11,5 L10.5,5 C10.2238576,5 10,4.78515625 10,4.50230122 L10,0.497698784 Z" id="Combined-Shape" fill="#FFCA00"></path>
                    <rect id="fita_1" fill="#FF5127" x="0" y="1" width="12" height="1"></rect>
                    <rect id="fita_2" fill="#558DFF" x="0" y="2" width="12" height="1"></rect>
                </g>
            </g>
            <g id="divulgue" transform="translate(479.000000, 2.000000)">
                <g>
                    <path d="M16,0.99999998 L16,10.0000002 C16,10.0000002 16,10.9999998 15.1657257,10.8591521 C15.1657257,10.8591521 9,8.00000023 6,8 L6,3 C9,2.99999999 15.1657257,0.141543379 15.1657257,0.141543379 C16,6.68634248e-09 16,0.99999998 16,0.99999998 Z" id="Combined-Shape" fill="#558DFF"></path>
                    <path d="M16,9 L16,10.0000002 C16,10.0000002 16,10.9999998 15.1657257,10.8591521 C15.1657257,10.8591521 9,8.00000023 6,8 L6,7 C6,7 16,8 16,9 Z" id="Combined-Shape-Copy-2" fill="#000000" opacity="0.149999991"></path>
                    <path d="M2.00411333,8.00000003 L1.00048911,8.00000003 C0.447934232,8.00000003 1.11816578e-09,7.55207112 1.13908882e-13,7.00130417 L1.13686838e-13,4.5 C-1.11955722e-09,3.44843551 0.451321103,3.46241874 0.991537961,3.41743517 L6.00460243,3 L6.00460234,8.00061035 L5.00460234,7.9932251 L5.00460234,11.9999996 L4.00460234,11.9999996 C3.45231759,11.9999996 3.00460235,11.5566464 3.00460236,10.9906308 L3.00460241,9.0093688 C3.00460242,8.45190982 2.561263,8.00000003 2.00411333,8.00000003 Z" id="Combined-Shape" fill="#424242"></path>
                    <rect id="Rectangle" fill="#FFCA00" x="1" y="4" width="2" height="1" rx="0.5"></rect>
                    <polygon id="Combined-Shape-Copy" fill="#E6E6E6" points="4.98090968 3.08524234 6.00460243 3 6.00460234 8.00061035 5.00460234 7.9932251"></polygon>
                </g>
            </g>
            <g id="off_topic" transform="translate(495.000000, 0.000000)">
                <path d="M12.9793935,0.957961783 C12.9793935,0.428025478 12.5466576,0 12.0108894,0 L3.97178964,0 C3.43602137,0 3.00328547,0.428025478 3.00328547,0.957961783 L3.00328547,1.50828025 C3.00328547,1.67133758 2.90025311,3.95414013 3.84815081,6.68535032 C4.83726144,9.55923567 5.41424265,11.3936306 4.85786791,12.7796178 C4.6518032,13.289172 4.48695142,13.6152866 4.38391907,13.8598726 C4.13664141,14.3694268 4.05421555,14.3681529 4.05421555,15 L4.05421555,15.0028687 C4.05421553,15.5535691 4.50129748,16 5.05410429,16 L10.9491812,16 C11.5014045,16 11.94907,15.546814 11.94907,15.0028687 L11.94907,15 C11.94907,14.3681529 11.8460376,14.3694268 11.6193664,13.8598726 C11.4957276,13.6152866 11.3514823,13.289172 11.1454176,12.7796178 C10.5890428,11.3936306 11.1454176,9.55923567 12.1551347,6.68535032 C12.8145418,4.76942675 12.9793935,3.05732484 13,2.16050955 L12.9793935,0.957961783 Z" id="Shape" fill="#FFCA00"></path>
                <path d="M11.8135992,4 C11.9265478,3.34288893 11.9868401,2.72532635 12,2.18376262 L12,2.16907676 L11.9795403,0.975094946 C11.9793935,0.982775048 11.996808,1 12.0108894,1 L3.97178964,1 C3.98587096,1 4.00328547,0.982775048 4.00328547,0.957961783 L4.00328547,1.50828025 C4.00263956,1.5620203 4.00263956,1.5620203 4.00149114,1.61887389 C4.00073686,1.66218755 4.00023146,1.70611783 4,1.75072407 L4,1.8624289 C4.00208185,2.26417486 4.02687001,2.72179042 4.09132261,3.27542241 C4.11925958,3.51539408 4.15329626,3.75707023 4.19378605,3.99999992 L11.8135992,4 L11.8135992,4 Z" id="Combined-Shape" fill="#FFFFFF"></path>
                <rect id="Rectangle" fill="#FFFFFF" opacity="0.5" x="6" y="14" width="4" height="1" rx="0.5"></rect>
                <path d="M4.43089116,6.54875546 C5.77840169,10.4699948 5.96283244,11.6611143 5.42892719,12.9931614 C5.32621213,13.2494266 5.4503707,13.5405653 5.70624312,13.643438 C5.96211553,13.7463107 6.25280812,13.6219616 6.35552317,13.3656965 C7.01041143,11.7318072 6.79919362,10.3676873 5.37458557,6.22210057 C5.22184608,5.78132217 5.09225364,5.33457078 4.98509518,4.88224292 C4.92144299,4.6135599 4.65236586,4.44742877 4.38409458,4.51117866 C4.11582331,4.57492854 3.94994677,4.84441866 4.01359896,5.11310167 C4.12846837,5.59797829 4.2674533,6.07710896 4.43089116,6.54875546 Z" id="luz_2" fill="#FFFFFF" opacity="0.5"></path>
                <path d="M9.73155269,6.54875546 C11.0811314,10.4699948 11.2658452,11.6611143 10.7311205,12.9931614 C10.6282478,13.2494266 10.7525969,13.5405653 11.0088621,13.643438 C11.2651272,13.7463107 11.5562659,13.6219616 11.6591386,13.3656965 C12.315032,11.7318072 12.10349,10.3676873 10.6766955,6.22210057 C10.5237216,5.78132217 10.3939302,5.33457078 10.2866073,4.88224292 C10.2228574,4.6135599 9.9533673,4.44742877 9.68468429,4.51117866 C9.41600127,4.57492854 9.24987014,4.84441866 9.31362003,5.11310167 C9.42866573,5.59797829 9.56786398,6.07710896 9.73155269,6.54875546 Z" id="luz_1" fill="#CB792F" opacity="0.200000018" transform="translate(10.657080, 9.088560) scale(-1, 1) translate(-10.657080, -9.088560) "></path>
            </g>
            <g id="guitarbattle" transform="translate(511.000000, 1.000000)">
                <g>
                    <path d="M2,1 L8,0 L14,1 L14,8 C14,11 8,14 8,14 C8,14 2,11 2,8 L2,1 Z" id="escudo" fill="#212121"></path>
                    <path d="M12,5.53234863 C12,5.80849101 12.2238576,6.03234863 12.5,6.03234863 C12.7761424,6.03234863 13,5.80849101 13,5.53234863 L13,2.25 C13,2.00558042 12.8232935,1.79698537 12.5821995,1.75680304 L11.134439,1.51550962 C10.8620538,1.47011209 10.6044401,1.65412193 10.5590425,1.92650709 C10.513645,2.19889225 10.6976548,2.45650602 10.97004,2.50190354 L12,2.67356354 L12,5.53234863 Z M7.99997914,11.964641 C7.93612908,11.9300608 7.86288472,11.8897129 7.78134533,11.8438791 C7.43484277,11.6491076 7.07036582,11.4280985 6.70599628,11.1856937 C6.47608403,11.0327396 6.1657095,11.0951264 6.01275536,11.3250387 C5.85980122,11.5549509 5.9221881,11.8653255 6.15210034,12.0182796 C6.53864584,12.2754374 6.92418613,12.5092188 7.29134444,12.715601 C7.5128561,12.8401142 7.68039091,12.9285093 7.7763932,12.9765105 C7.91715695,13.0468923 8.08284305,13.0468923 8.2236068,12.9765105 C8.31546154,12.9305831 8.47604754,12.8459649 8.68896682,12.7266511 C9.04176733,12.5289518 9.41366104,12.3047027 9.78841001,12.0576746 C10.0189676,11.905695 10.0826677,11.5955873 9.93068805,11.3650297 C9.77870843,11.1344721 9.46860075,11.0707721 9.23804314,11.2227517 C8.88462544,11.4557186 8.53302347,11.6677319 8.2001169,11.8542832 C8.12588417,11.8958811 8.05888013,11.9327417 7.99997914,11.964641 Z M5.07778517,2.49393268 C5.35017033,2.44853516 5.53418016,2.19092139 5.48878264,1.91853623 C5.44338511,1.64615107 5.18577134,1.46214123 4.91338618,1.50753876 L3.41780051,1.75680304 C3.17670652,1.79698537 3,2.00558042 3,2.25 L3,5.52697754 C3,5.80311991 3.22385763,6.02697754 3.5,6.02697754 C3.77614237,6.02697754 4,5.80311991 4,5.52697754 L4,2.67356354 L5.07778517,2.49393268 Z" id="linha_interna" fill="#757575"></path>
                    <polygon id="strela" fill="#EEEEEE" points="6.5 2 7.60366821 1.61767578 8 0.5 8.44110107 1.61767578 9.5 2 8.44110107 2.39605713 8 3.5 7.60366821 2.39605713"></polygon>
                    <g id="guitarra_direita" transform="translate(5.000000, 2.000000)">
                        <path d="M7.5,11 C6.86056796,11 7,10 7,10 L7,8 L5,8 C5,8 4,8.11884655 4,7.5 C4,7 4.63636364,6.56412391 4.63636364,6.54545455 C4.63636364,6.54217663 9.72727273,4 9.72727273,4 L11,4 L11,5.27272727 L8.45454545,10.3636364 C8.45454545,10.3636364 8,11 7.5,11 Z" id="Path-14-Copy" fill="#FF4840" transform="translate(7.500000, 7.500000) scale(-1, 1) translate(-7.500000, -7.500000) "></path>
                        <path d="M6.35355339,5.64644661 L1.70710678,1 C1.51184464,0.804737854 1.19526215,0.804737854 1,1 C0.804737854,1.19526215 0.804737854,1.51184464 1,1.70710678 L5.64644661,6.35355339 C5.84170876,6.54881554 6.15829124,6.54881554 6.35355339,6.35355339 C6.54881554,6.15829124 6.54881554,5.84170876 6.35355339,5.64644661 Z" id="Path-3-Copy" fill="#EEEEEE"></path>
                        <circle id="Oval" fill="#FF4840" cx="10.5" cy="4.5" r="0.5"></circle>
                        <circle id="Oval-Copy" fill="#FF4840" cx="9.5" cy="9.5" r="0.5"></circle>
                    </g>
                    <g id="guitarra_esquerda" transform="translate(0.000000, 2.000000)">
                        <path d="M3.5,11 C2.86056796,11 3,10 3,10 L3,8 L1,8 C1,8 2.20824973e-17,8.11884655 0,7.5 C0,7 0.636363636,6.56412391 0.636363636,6.54545455 C0.636363636,6.54217663 5.72727273,4 5.72727273,4 L7,4 L7,5.27272727 L4.45454545,10.3636364 C4.45454545,10.3636364 4,11 3.5,11 Z" id="Path-14" fill="#FF4840"></path>
                        <path d="M5.35355339,6.35355339 L10,1.70710678 C10.1952621,1.51184464 10.1952621,1.19526215 10,1 C9.80473785,0.804737854 9.48815536,0.804737854 9.29289322,1 L4.64644661,5.64644661 C4.45118446,5.84170876 4.45118446,6.15829124 4.64644661,6.35355339 C4.84170876,6.54881554 5.15829124,6.54881554 5.35355339,6.35355339 Z" id="Path-3" fill="#EEEEEE"></path>
                        <circle id="Oval-Copy-2" fill="#FF4840" cx="1.5" cy="9.5" r="0.5"></circle>
                        <circle id="Oval-Copy-3" fill="#FF4840" cx="0.5" cy="4.5" r="0.5"></circle>
                    </g>
                </g>
            </g>
        </g>
    </g>
</svg>