<?xml version="1.0" encoding="UTF-8" standalone="no"?>
<svg version="1.1" width="64px" height="58px" viewBox="0 0 16 16" xmlns="http://www.w3.org/2000/svg" xmlns:xlink="http://www.w3.org/1999/xlink">
<!-- <svg width="530px" height="64px" viewBox="0 0 530 " version="1.1" xmlns="http://www.w3.org/2000/svg" xmlns:xlink="http://www.w3.org/1999/xlink"> -->
    <!-- Generator: Sketch 40.3 (33839) - http://www.bohemiancoding.com/sketch -->
    <title>baixo svg</title>
    <!-- <desc>Created with Sketch.</desc> -->
    <defs>
        <rect id="path-1" x="1" y="12" width="14" height="3"></rect>
    </defs>
    <g id="Page-1" stroke="none" stroke-width="1" fill="none" fill-rule="evenodd">
        <g id="icn">
            <g id="color_baixo" transform="translate(0.000000, 0.000000)">
                <path d="M0.129943848,10.4354249 C0.723876936,7.92462169 3.12917966,8.79196102 4.375,7.5333863 C5.62082034,6.27481157 5.91479529,4.03220441 7.10031014,4.02568829 C7.70959454,4.02233939 8.37439734,4.29034421 7.56347662,4.96929932 C6.75255591,5.64825442 6.83866675,6.70825324 7.56347662,7.02685557 C8.2882865,7.3454579 8.94683844,8.88415514 8.57501227,9.39776598 C8.2031861,9.91137682 8.92605299,10.9501526 9.85258198,10.2739469 C10.779111,9.59774113 10.9076085,10.5785612 10.5120848,11.1079713 C10.3600622,11.3114542 8.94732655,11.8333741 8.94732648,11.8333741 C6.50146466,13.1940914 7.92608651,15.9890114 4.54449471,15.9890133 C1.23999021,15.9890152 -0.46398924,12.9462281 0.129943848,10.4354249 Z" id="Path-12" fill="#FF5127"></path>
                <path d="M14.3531494,3.18408212 L15.0005493,2.81195061 C15.0005493,2.81195061 15.9255371,1.5287165 15.9898844,0.699093044 C16.0065084,0.484762125 15.4627111,0.0061924507 15.2042545,0.0457296224 C14.3665213,0.173881135 13.1849365,1.0165405 13.1849365,1.0165405 L12.8568726,1.69989011 L5.51348877,8.49041707 L7.51049805,10.537231 L14.3531494,3.18408212 Z M4.21230508,14 L5,13.2123051 L2.78769492,11 L2,11.7876949 L4.21230508,14 Z" id="Combined-Shape" fill="#424242"></path>
            </g>
        </g>
    </g>
</svg>