<?xml version="1.0" encoding="UTF-8" standalone="no"?>
<svg version="1.1" width="64px" height="64px" viewBox="0 0 18 18" xmlns="http://www.w3.org/2000/svg" xmlns:xlink="http://www.w3.org/1999/xlink">
<!-- <svg width="530px" height="64px" viewBox="0 0 530 " version="1.1" xmlns="http://www.w3.org/2000/svg" xmlns:xlink="http://www.w3.org/1999/xlink"> -->
    <!-- Generator: Sketch 40.3 (33839) - http://www.bohemiancoding.com/sketch -->
    <title>cavaco svg</title>
    <!-- <desc>Created with Sketch.</desc> -->
    <defs>
        <rect id="path-1" x="1" y="12" width="14" height="3"></rect>
    </defs>
    <g id="Page-1" stroke="none" stroke-width="1" fill="none" fill-rule="evenodd">
        <g id="icn">
            <g id="color_cavaco" transform="translate(0.000000, 0.000000)">
                <path d="M7.29957628,15.2750573 C4.68416058,18.2787896 -2.41881245,11.1547369 0.838552605,8.36910308 C2.59630436,6.86590873 4.15980056,7.86727096 5.01257086,7.0268899 C6.07363326,5.98124285 6.26501465,1.64111319 10.3090277,5.75528745 C14.3530407,9.8694617 9.85540168,9.80517464 9.0119772,11.0109207 C8.08335867,12.3384588 9.09018267,13.2185955 7.29957628,15.2750573 Z" id="Combined-Shape" fill="#CB792F"></path>
                <path d="M15.5128174,1.50738525 L14.5128174,0.507385254 L8.00311279,7.00811768 L9.00311279,8.00811768 L15.5128174,1.50738525 Z M13.5,1 C13.7761424,1 14,0.776142375 14,0.5 C14,0.223857625 13.7761424,0 13.5,0 C13.2238576,0 13,0.223857625 13,0.5 C13,0.776142375 13.2238576,1 13.5,1 Z M12.5,2 C12.7761424,2 13,1.77614237 13,1.5 C13,1.22385763 12.7761424,1 12.5,1 C12.2238576,1 12,1.22385763 12,1.5 C12,1.77614237 12.2238576,2 12.5,2 Z M14.5,4 C14.7761424,4 15,3.77614237 15,3.5 C15,3.22385763 14.7761424,3 14.5,3 C14.2238576,3 14,3.22385763 14,3.5 C14,3.77614237 14.2238576,4 14.5,4 Z M15.5,3 C15.7761424,3 16,2.77614237 16,2.5 C16,2.22385763 15.7761424,2 15.5,2 C15.2238576,2 15,2.22385763 15,2.5 C15,2.77614237 15.2238576,3 15.5,3 Z M3,10.7876949 L5.21230508,13 L6,12.2123051 L3.78769492,10 L3,10.7876949 Z M7,10.5 C7.82842712,10.5 8.5,9.82842712 8.5,9 C8.5,8.17157288 7.82842712,7.5 7,7.5 C6.17157288,7.5 5.5,8.17157288 5.5,9 C5.5,9.82842712 6.17157288,10.5 7,10.5 Z" id="Combined-Shape" fill="#3F260F"></path>
            </g>
            
        </g>
    </g>
</svg>