<?xml version="1.0" encoding="UTF-8" standalone="no"?>
<svg version="1.1" width="64px" height="64px" viewBox="0 0 18 18" xmlns="http://www.w3.org/2000/svg" xmlns:xlink="http://www.w3.org/1999/xlink">
<!-- <svg width="530px" height="64px" viewBox="0 0 530 " version="1.1" xmlns="http://www.w3.org/2000/svg" xmlns:xlink="http://www.w3.org/1999/xlink"> -->
    <!-- Generator: Sketch 40.3 (33839) - http://www.bohemiancoding.com/sketch -->
    <title>flauta svg</title>
    <!-- <desc>Created with Sketch.</desc> -->
    <defs>
        <rect id="path-1" x="1" y="12" width="14" height="3"></rect>
    </defs>
    <g id="Page-1" stroke="none" stroke-width="1" fill="none" fill-rule="evenodd">
        <g id="icn">
            <g id="color_flauta" transform="translate(0.000000, 0.000000)">
                <g>
                    <path d="M0,0.499076843 C0,0.223444314 0.214035034,0 0.504684448,0 L1.49531555,0 C1.77404508,0 2,0.223682597 2,0.499076843 L2,14.5009232 C2,14.7765557 1.78596497,15 1.49531555,15 L0.504684448,15 C0.225954924,15 0,14.7763174 0,14.5009232 L0,0.499076843 Z M2,0.493741035 C2,0.221055391 2.21403503,0 2.50468445,0 L3.49531555,0 C3.77404508,0 4,0.225639343 4,0.493741035 L4,12.506259 C4,12.7789446 3.78596497,13 3.49531555,13 L2.50468445,13 C2.22595492,13 2,12.7743607 2,12.506259 L2,0.493741035 Z M4,0.501230836 C4,0.224408689 4.21403503,0 4.50468445,0 L5.49531555,0 C5.77404508,0 6,0.229750633 6,0.501230836 L6,10.4987692 C6,10.7755913 5.78596497,11 5.49531555,11 L4.50468445,11 C4.22595492,11 4,10.7702494 4,10.4987692 L4,0.501230836 Z M6,0.509665847 C6,0.228185172 6.21403503,0 6.50468445,0 L7.49531555,0 C7.77404508,0 8,0.222473145 8,0.509665847 L8,8.49033415 C8,8.77181483 7.78596497,9 7.49531555,9 L6.50468445,9 C6.22595492,9 6,8.77752686 6,8.49033415 L6,0.509665847 Z M8,0.503422737 C8,0.225390037 8.21403503,0 8.50468445,0 L9.49531555,0 C9.77404508,0 10,0.232902527 10,0.503422737 L10,6.49657726 C10,6.77460996 9.78596497,7 9.49531555,7 L8.50468445,7 C8.22595492,7 8,6.76709747 8,6.49657726 L8,0.503422737 Z M10,0.497698784 C10,0.222827336 10.214035,0 10.5046844,0 L11.4953156,0 C11.7740451,0 12,0.21484375 12,0.497698784 L12,4.50230122 C12,4.77717266 11.785965,5 11.4953156,5 L10.5046844,5 C10.2259549,5 10,4.78515625 10,4.50230122 L10,0.497698784 Z" id="Combined-Shape" fill="#E4B242"></path>
                    <path d="M2,0.493741035 C2,0.221055391 2.23193359,0 2.5,0 L3,0 L3,13 L2.5,13 C2.22385763,13 2,12.7743607 2,12.506259 L2,0.493741035 Z M4,0.501230836 C4,0.224408689 4.23193359,0 4.5,0 L5,0 L5,11 L4.5,11 C4.22385763,11 4,10.7702494 4,10.4987692 L4,0.501230836 Z M6,0.509665847 C6,0.228185172 6.23193359,0 6.5,0 L7,0 L7,9 L6.5,9 C6.22385763,9 6,8.77752686 6,8.49033415 L6,0.509665847 Z M8,0.503422737 C8,0.225390037 8.23193359,0 8.5,0 L9,0 L9,7 L8.5,7 C8.22385763,7 8,6.76709747 8,6.49657726 L8,0.503422737 Z M0,0.499076843 C0,0.223444314 0.231933594,0 0.5,0 L1,0 L1,15 L0.5,15 C0.223857625,15 0,14.7763174 0,14.5009232 L0,0.499076843 Z M10,0.497698784 C10,0.222827336 10.2319336,0 10.5,0 L11,0 L11,5 L10.5,5 C10.2238576,5 10,4.78515625 10,4.50230122 L10,0.497698784 Z" id="Combined-Shape" fill="#FFCA00"></path>
                    <rect id="fita_1" fill="#FF5127" x="0" y="1" width="12" height="1"></rect>
                    <rect id="fita_2" fill="#558DFF" x="0" y="2" width="12" height="1"></rect>
                </g>
            </g>
        </g>
    </g>
</svg>