<?xml version="1.0" encoding="UTF-8" standalone="no"?>
<svg version="1.1" width="64px" height="64px" viewBox="0 0 18 18" xmlns="http://www.w3.org/2000/svg" xmlns:xlink="http://www.w3.org/1999/xlink">
<!-- <svg width="530px" height="64px" viewBox="0 0 530 " version="1.1" xmlns="http://www.w3.org/2000/svg" xmlns:xlink="http://www.w3.org/1999/xlink"> -->
    <!-- Generator: Sketch 40.3 (33839) - http://www.bohemiancoding.com/sketch -->
    <title>gaita svg</title>
    <!-- <desc>Created with Sketch.</desc> -->
    <defs>
        <rect id="path-1" x="1" y="12" width="14" height="3"></rect>
    </defs>
    <g id="Page-1" stroke="none" stroke-width="1" fill="none" fill-rule="evenodd">
        <g id="icn">
            <g id="color_gaita" transform="translate(0.000000, 0.000000)">
                <g id="Group-2">
                    <path d="M0.704832956,10.295167 C0.315564463,10.6844355 0.312772393,11.3127724 0.70577316,11.7057732 L4.29422684,15.2942268 C4.68401459,15.6840146 5.31734562,15.6826544 5.70483296,15.295167 L15.295167,5.70483296 C15.6844355,5.31556446 15.6872276,4.68722761 15.2942268,4.29422684 L11.7057732,0.70577316 C11.3159854,0.315985407 10.6826544,0.317345619 10.295167,0.704832956 L0.704832956,10.295167 Z" id="Fundo" fill="#DFA72A"></path>
                    <g id="sopro" transform="translate(6.000000, 6.000000)" fill="#B07903">
                        <circle id="Oval-11" cx="7.5" cy="0.5" r="0.5"></circle>
                        <circle id="Oval-11" cx="6.5" cy="1.5" r="0.5"></circle>
                        <circle id="Oval-11" cx="5.5" cy="2.5" r="0.5"></circle>
                        <circle id="Oval-11" cx="4.5" cy="3.5" r="0.5"></circle>
                        <circle id="Oval-11" cx="3.5" cy="4.5" r="0.5"></circle>
                        <circle id="Oval-11" cx="2.5" cy="5.5" r="0.5"></circle>
                        <circle id="Oval-11" cx="1.5" cy="6.5" r="0.5"></circle>
                        <circle id="Oval-11" cx="0.5" cy="7.5" r="0.5"></circle>
                    </g>
                    <path d="M0.704832956,10.295167 C0.315564463,10.6844355 0.317176337,11.3172203 0.708587502,11.7086856 L3.70169076,14.7022035 C4.09303283,15.0935998 4.72762388,15.0935435 5.11511122,14.7060562 L14.7054453,5.11572209 C15.0947138,4.72645359 15.0931019,4.09366886 14.7016908,3.70220348 L11.7085875,0.708685648 C11.3172454,0.317289372 10.6826544,0.317345619 10.295167,0.704832956 L0.704832956,10.295167 Z" id="Topo" fill="#ECC01B"></path>
                </g>
                <path d="M9.01635742,2.98364258 L3.06182861,8.93817139 C2.60894594,9.39105406 2.25753454,12.2575345 2.53082275,12.5308228 C2.78356246,12.7835625 5.58847881,12.4115212 6.03112793,11.9688721 C7.67508932,10.3249107 10.4338789,7.56612108 12.0365601,5.96343994 C12.7949617,5.20503832 12.7812024,2.78120244 12.5272827,2.52728271 C12.2551745,2.25517452 9.44327078,2.55672922 9.01635742,2.98364258 Z" id="Capa" fill="#E6E6E6"></path>
                <g id="Parafusos" transform="translate(3.000000, 3.000000)" fill="#8F9ABB">
                    <circle id="Oval-11" cx="0.5" cy="8.5" r="0.5"></circle>
                    <circle id="Oval-11" cx="8.5" cy="0.5" r="0.5"></circle>
                </g>
                <g id="Iluminacao" transform="translate(3.000000, 3.000000)">
                    <path d="M0.862567698,6.88920516 L6.88920516,0.862567698 C7.36060968,0.391163177 6.6535029,-0.315943604 6.18209838,0.155460917 L0.155460917,6.18209838 C-0.315943604,6.6535029 0.391163177,7.36060968 0.862567698,6.88920516 Z" id="Path-27" fill="#FFFFFF"></path>
                    <path d="M2.8625677,8.88920516 L8.88920516,2.8625677 C9.36060968,2.39116318 8.6535029,1.6840564 8.18209838,2.15546092 L2.15546092,8.18209838 C1.6840564,8.6535029 2.39116318,9.36060968 2.8625677,8.88920516 Z" id="Path-27" fill="#C5C5C5"></path>
                </g>
            </g>
        </g>
    </g>
</svg>