<?xml version="1.0" encoding="UTF-8" standalone="no"?>
<svg version="1.1" width="64px" height="64px" viewBox="0 0 18 18" xmlns="http://www.w3.org/2000/svg" xmlns:xlink="http://www.w3.org/1999/xlink">
<!-- <svg width="530px" height="64px" viewBox="0 0 530 " version="1.1" xmlns="http://www.w3.org/2000/svg" xmlns:xlink="http://www.w3.org/1999/xlink"> -->
    <!-- Generator: Sketch 40.3 (33839) - http://www.bohemiancoding.com/sketch -->
    <title>harpa svg</title>
    <!-- <desc>Created with Sketch.</desc> -->
    <defs>
        <rect id="path-1" x="1" y="12" width="14" height="3"></rect>
    </defs>
    <g id="Page-1" stroke="none" stroke-width="1" fill="none" fill-rule="evenodd">
        <g id="icn">
            <g id="color_harpa" transform="translate(0.000000, 0.000000)">
                <g>
                    <path d="M4,1 L5,1 L5,14 L4,14 L4,1 Z M8,0 L9,0 L9,14 L8,14 L8,0 Z M6,0 L7,0 L7,14 L6,14 L6,0 Z M10,1 L11,1 L11,14 L10,14 L10,1 Z" id="cordas" fill="#FFCA00"></path>
                    <rect id="cavalete" fill="#E4B242" x="3" y="3" width="9" height="2"></rect>
                    <path d="M4,2 C4,0.8954305 3.1045695,0 2,0 C0.8954305,0 0,0.8954305 0,2 C0,3.05932909 0.823583406,3.92629997 1.86537843,3.99554085 C1.72710797,4.86032587 1.47906735,5.55473972 1.10632211,6.29712313 C1.04451541,6.42022133 0.793440512,6.90372099 0.731788082,7.02651194 C0.226160112,8.03355317 4.53042048e-10,8.83136767 0,9.96665764 C-1.38496148e-09,13.4373089 3,16 7.5,16 C12,16 15,13.4373089 15,9.96665764 C15,8.83136769 14.7738399,8.03355318 14.2682121,7.026512 C14.2065596,6.90372102 13.9554846,6.42022115 13.8936779,6.29712287 C13.5209328,5.55473956 13.2728922,4.86032575 13.1346217,3.99554084 C14.1764167,3.92629988 15,3.05932904 15,2 C15,0.8954305 14.1045695,0 13,0 C11.8954364,0 11.0000096,0.895420938 11,1.99998231 C11.0000002,4.28599331 11.351586,5.69135966 12.1063221,7.19454089 C12.1762878,7.33388922 12.4273628,7.8173891 12.4808562,7.92393003 C12.8570344,8.67315087 13,9.17748398 13,9.96665764 C13,12.1293307 11,14 7.5,14 C4,14 2,12.1293307 2,9.96665764 C2,9.17748402 2.1429656,8.67315094 2.51914386,7.92393008 C2.57263727,7.81738917 2.82371217,7.33388952 2.89367789,7.19454128 C3.64841418,5.69135987 4,4.28599348 4,2 Z" id="arco" fill="#CB792F"></path>
                </g>
            </g>
        </g>
    </g>
</svg>