<?xml version="1.0" encoding="UTF-8" standalone="no"?>
<svg version="1.1" width="64px" height="64px" viewBox="0 0 18 18" xmlns="http://www.w3.org/2000/svg" xmlns:xlink="http://www.w3.org/1999/xlink">
<!-- <svg width="530px" height="64px" viewBox="0 0 530 " version="1.1" xmlns="http://www.w3.org/2000/svg" xmlns:xlink="http://www.w3.org/1999/xlink"> -->
    <!-- Generator: Sketch 40.3 (33839) - http://www.bohemiancoding.com/sketch -->
    <title>pedal svg</title>
    <!-- <desc>Created with Sketch.</desc> -->
    <defs>
        <rect id="path-1" x="1" y="12" width="14" height="3"></rect>
    </defs>
    <g id="Page-1" stroke="none" stroke-width="1" fill="none" fill-rule="evenodd">
        <g id="icn">
            <g id="color_pedal" transform="translate(0.000000, 0.000000)">
                <g>
                    <rect id="caixa" fill="#FF7700" x="1" y="0" width="11" height="16" rx="1"></rect>
                    <polygon id="luz" fill="#FF9900" points="2 4 11 7 2 7"></polygon>
                    <rect id="borracha" fill="#212121" x="2" y="10" width="9" height="5" rx="0.5"></rect>
                    <path d="M2,8.5 C2,8.22385763 2.21484375,8 2.49769878,8 L6.50230122,8 C6.77717266,8 7,8.23193359 7,8.5 C7,8.77614237 6.78515625,9 6.50230122,9 L2.49769878,9 C2.22282734,9 2,8.76806641 2,8.5 Z M10.5,9 C10.7761424,9 11,8.77614237 11,8.5 C11,8.22385763 10.7761424,8 10.5,8 C10.2238576,8 10,8.22385763 10,8.5 C10,8.77614237 10.2238576,9 10.5,9 Z M8.5,9 C8.77614237,9 9,8.77614237 9,8.5 C9,8.22385763 8.77614237,8 8.5,8 C8.22385763,8 8,8.22385763 8,8.5 C8,8.77614237 8.22385763,9 8.5,9 Z" id="descricao" fill="#424242"></path>
                    <rect id="marca" fill="#424242" x="3" y="11" width="7" height="1" rx="0.5"></rect>
                    <circle id="ligado" fill="#D0011B" cx="6.5" cy="1.5" r="0.5"></circle>
                    <path d="M3.5,4 C4.32842712,4 5,3.32842712 5,2.5 C5,1.67157288 4.32842712,1 3.5,1 C2.67157288,1 2,1.67157288 2,2.5 C2,3.32842712 2.67157288,4 3.5,4 Z M6.5,6 C7.32842712,6 8,5.32842712 8,4.5 C8,3.67157288 7.32842712,3 6.5,3 C5.67157288,3 5,3.67157288 5,4.5 C5,5.32842712 5.67157288,6 6.5,6 Z M9.5,4 C10.3284271,4 11,3.32842712 11,2.5 C11,1.67157288 10.3284271,1 9.5,1 C8.67157288,1 8,1.67157288 8,2.5 C8,3.32842712 8.67157288,4 9.5,4 Z" id="controles" fill="#212121"></path>
                    <path d="M3.5,3 C3.77614237,3 4,2.77614237 4,2.5 C4,2.22385763 3.77614237,2 3.5,2 C3.22385763,2 3,2.22385763 3,2.5 C3,2.77614237 3.22385763,3 3.5,3 Z M6.5,5 C6.77614237,5 7,4.77614237 7,4.5 C7,4.22385763 6.77614237,4 6.5,4 C6.22385763,4 6,4.22385763 6,4.5 C6,4.77614237 6.22385763,5 6.5,5 Z M9.5,3 C9.77614237,3 10,2.77614237 10,2.5 C10,2.22385763 9.77614237,2 9.5,2 C9.22385763,2 9,2.22385763 9,2.5 C9,2.77614237 9.22385763,3 9.5,3 Z" id="controles_brancos_circulares" fill="#FFFFFF"></path>
                    <g id="jack" transform="translate(0.000000, 5.000000)">
                        <rect id="Rectangle-7" fill="#424242" x="0" y="2" width="1" height="1"></rect>
                        <rect id="Rectangle-7-Copy" fill="#757575" x="0" y="1" width="1" height="1"></rect>
                        <rect id="Rectangle-7-Copy-2" fill="#9E9E9E" x="0" y="0" width="1" height="1"></rect>
                        <rect id="Rectangle-7-Copy-5" fill="#424242" x="12" y="2" width="1" height="1"></rect>
                        <rect id="Rectangle-7-Copy-4" fill="#757575" x="12" y="1" width="1" height="1"></rect>
                        <rect id="Rectangle-7-Copy-3" fill="#9E9E9E" x="12" y="0" width="1" height="1"></rect>
                    </g>
                </g>
            </g>
        </g>
    </g>
</svg>