<?xml version="1.0" encoding="UTF-8" standalone="no"?>
<svg version="1.1" width="64px" height="44px" viewBox="0 0 16 12" xmlns="http://www.w3.org/2000/svg" xmlns:xlink="http://www.w3.org/1999/xlink">
<!-- <svg width="530px" height="64px" viewBox="0 0 530 " version="1.1" xmlns="http://www.w3.org/2000/svg" xmlns:xlink="http://www.w3.org/1999/xlink"> -->
    <!-- Generator: Sketch 40.3 (33839) - http://www.bohemiancoding.com/sketch -->
    <title>sanfona svg</title>
    <!-- <desc>Created with Sketch.</desc> -->
    <defs>
        <rect id="path-1" x="1" y="12" width="14" height="3"></rect>
    </defs>
    <g id="Page-1" stroke="none" stroke-width="1" fill="none" fill-rule="evenodd">
        <g id="icn">
            <g id="color_sanfona" transform="translate(0.000000, 0.000000)">
                <g>
                    <path d="M0,1.00247329 C0,0.448822582 0.437881351,0 1.00292933,0 L7,0 L7,12 L1.00292933,12 C0.449026756,12 0,11.544239 0,10.9975267 L0,1.00247329 Z M12,0 L14.9906311,0 C15.5480902,0 16,0.455760956 16,1.00247329 L16,10.9975267 C16,11.5511774 15.5566468,12 14.9906311,12 L12,12 L12,0 Z M8,11 L8,1 L8.5,0 L9,0.998291016 L9,11 L8.5,12 L8,11 Z M10,11 L10,1 L10.5,0 L11,0.998291016 L11,11 L10.5,12 L10,11 Z" id="corpo" fill="#424242"></path>
                    <rect id="marca" fill="#FFFFFF" x="5" y="4" width="1" height="4" rx="0.5"></rect>
                    <path d="M14.5,2 C14.7761424,2 15,1.77614237 15,1.5 C15,1.22385763 14.7761424,1 14.5,1 C14.2238576,1 14,1.22385763 14,1.5 C14,1.77614237 14.2238576,2 14.5,2 Z M13.5,3 C13.7761424,3 14,2.77614237 14,2.5 C14,2.22385763 13.7761424,2 13.5,2 C13.2238576,2 13,2.22385763 13,2.5 C13,2.77614237 13.2238576,3 13.5,3 Z M14.5,4 C14.7761424,4 15,3.77614237 15,3.5 C15,3.22385763 14.7761424,3 14.5,3 C14.2238576,3 14,3.22385763 14,3.5 C14,3.77614237 14.2238576,4 14.5,4 Z M13.5,5 C13.7761424,5 14,4.77614237 14,4.5 C14,4.22385763 13.7761424,4 13.5,4 C13.2238576,4 13,4.22385763 13,4.5 C13,4.77614237 13.2238576,5 13.5,5 Z M14.5,6 C14.7761424,6 15,5.77614237 15,5.5 C15,5.22385763 14.7761424,5 14.5,5 C14.2238576,5 14,5.22385763 14,5.5 C14,5.77614237 14.2238576,6 14.5,6 Z M13.5,7 C13.7761424,7 14,6.77614237 14,6.5 C14,6.22385763 13.7761424,6 13.5,6 C13.2238576,6 13,6.22385763 13,6.5 C13,6.77614237 13.2238576,7 13.5,7 Z M14.5,8 C14.7761424,8 15,7.77614237 15,7.5 C15,7.22385763 14.7761424,7 14.5,7 C14.2238576,7 14,7.22385763 14,7.5 C14,7.77614237 14.2238576,8 14.5,8 Z M13.5,9 C13.7761424,9 14,8.77614237 14,8.5 C14,8.22385763 13.7761424,8 13.5,8 C13.2238576,8 13,8.22385763 13,8.5 C13,8.77614237 13.2238576,9 13.5,9 Z M14.5,10 C14.7761424,10 15,9.77614237 15,9.5 C15,9.22385763 14.7761424,9 14.5,9 C14.2238576,9 14,9.22385763 14,9.5 C14,9.77614237 14.2238576,10 14.5,10 Z M13.5,11 C13.7761424,11 14,10.7761424 14,10.5 C14,10.2238576 13.7761424,10 13.5,10 C13.2238576,10 13,10.2238576 13,10.5 C13,10.7761424 13.2238576,11 13.5,11 Z" id="baixo" fill="#FFFFFF"></path>
                    <path d="M1,1 L4,1 L4,11 L1,11 L1,1 Z M2,2 L4,2 L4,3 L2,3 L2,2 Z M2,4 L4,4 L4,5 L2,5 L2,4 Z M2,7 L4,7 L4,8 L2,8 L2,7 Z M2,9 L4,9 L4,10 L2,10 L2,9 Z" id="teclado" fill="#FFFFFF"></path>
                    <path d="M7,11 L7,1 L7.5,0 L8,0.998291016 L8,11 L7.5,12 L7,11 Z M9,11 L9,1 L9.5,0 L10,0.998291016 L10,11 L9.5,12 L9,11 Z M11,11 L11,1 L11.5,0 L12,0.998291016 L12,11 L11.5,12 L11,11 Z" id="sanfona" fill="#757575"></path>
                </g>
            </g>
        </g>
    </g>
</svg>