<?xml version="1.0" encoding="UTF-8" standalone="no"?>
<svg version="1.1" width="64px" height="64px" viewBox="0 0 18 18" xmlns="http://www.w3.org/2000/svg" xmlns:xlink="http://www.w3.org/1999/xlink">
<!-- <svg width="530px" height="64px" viewBox="0 0 530 " version="1.1" xmlns="http://www.w3.org/2000/svg" xmlns:xlink="http://www.w3.org/1999/xlink"> -->
    <!-- Generator: Sketch 40.3 (33839) - http://www.bohemiancoding.com/sketch -->
    <title>teclado svg</title>
    <!-- <desc>Created with Sketch.</desc> -->
    <defs>
        <rect id="path-1" x="1" y="12" width="14" height="3"></rect>
    </defs>
    <g id="Page-1" stroke="none" stroke-width="1" fill="none" fill-rule="evenodd">
        <g id="icn">
            <g id="color_teclado" transform="translate(.000000, 0.000000)">
                <polygon id="Teclado" fill="#424242" points="0 9 7 16 16 7 9 0"></polygon>
                <g id="Controles" transform="translate(3.000000, 3.000000)">
                    <circle id="Oval-8" fill="#61B406" cx="6.5" cy="0.5" r="0.5"></circle>
                    <circle id="Oval-8" fill="#FF5127" cx="0.5" cy="6.5" r="0.5"></circle>
                    <polygon id="Path-36" fill="#61B406" points="1.51037598 4.53454588 2.52197266 5.54504392 5.55493164 2.52233887 4.53182075 1.49922798"></polygon>
                </g>
                <g id="Teclas" transform="translate(5.000000, 5.000000)" fill="#FFFFFF">
                    <polygon id="Path-18" points="0 7 2 9 3 8 1 6"></polygon>
                    <polygon id="Path-18" points="2 5 4 7 5 6 3 4"></polygon>
                    <polygon id="Path-18" points="4 3 6 5 7 4 5 2"></polygon>
                    <polygon id="Path-18" points="7.30957031 2.29553223 2.00341797 7.58837891 2.00341797 8.987854 9 2 7 0 6 1"></polygon>
                </g>
            </g>
        </g>
    </g>
</svg>